<svg width="794" height="756" xmlns="http://www.w3.org/2000/svg" xmlns:xlink="http://www.w3.org/1999/xlink" overflow="hidden"><defs><clipPath id="clip0"><rect x="0" y="0" width="794" height="756"/></clipPath></defs><g clip-path="url(#clip0)"><rect x="0" y="0" width="794" height="755.849" fill="#F6C6AD"/><path d="M340.5 119.976C340.5 105.343 352.588 93.4814 367.5 93.4814 382.412 93.4814 394.5 105.343 394.5 119.976 394.5 134.609 382.412 146.471 367.5 146.471 352.588 146.471 340.5 134.609 340.5 119.976Z" stroke="#000000" stroke-width="3.33473" stroke-miterlimit="8" fill="#F2AA84" fill-rule="evenodd"/><path d="M417.5 119.976C417.5 105.343 429.364 93.4814 444 93.4814 458.636 93.4814 470.5 105.343 470.5 119.976 470.5 134.609 458.636 146.471 444 146.471 429.364 146.471 417.5 134.609 417.5 119.976Z" stroke="#000000" stroke-width="3.33473" stroke-miterlimit="8" fill="#F2AA84" fill-rule="evenodd"/><path d="M340.5 400.42C340.5 385.511 352.588 373.426 367.5 373.426 382.412 373.426 394.5 385.511 394.5 400.42 394.5 415.329 382.412 427.415 367.5 427.415 352.588 427.415 340.5 415.329 340.5 400.42Z" stroke="#000000" stroke-width="3.33473" stroke-miterlimit="8" fill="#F2AA84" fill-rule="evenodd"/><path d="M230.5 212.458C230.5 197.549 242.364 185.463 257 185.463 271.636 185.463 283.5 197.549 283.5 212.458 283.5 227.366 271.636 239.452 257 239.452 242.364 239.452 230.5 227.366 230.5 212.458Z" stroke="#000000" stroke-width="3.33473" stroke-miterlimit="8" fill="#F2AA84" fill-rule="evenodd"/><path d="M305.5 212.458C305.5 197.549 317.364 185.463 332 185.463 346.636 185.463 358.5 197.549 358.5 212.458 358.5 227.366 346.636 239.452 332 239.452 317.364 239.452 305.5 227.366 305.5 212.458Z" stroke="#000000" stroke-width="3.33473" stroke-miterlimit="8" fill="#F2AA84" fill-rule="evenodd"/><path d="M381.5 212.458C381.5 197.549 393.588 185.463 408.5 185.463 423.412 185.463 435.5 197.549 435.5 212.458 435.5 227.366 423.412 239.452 408.5 239.452 393.588 239.452 381.5 227.366 381.5 212.458Z" stroke="#000000" stroke-width="3.33473" stroke-miterlimit="8" fill="#F2AA84" fill-rule="evenodd"/><path d="M455.5 214.457C455.5 199.549 467.588 187.463 482.5 187.463 497.412 187.463 509.5 199.549 509.5 214.457 509.5 229.366 497.412 241.452 482.5 241.452 467.588 241.452 455.5 229.366 455.5 214.457Z" stroke="#000000" stroke-width="3.33473" stroke-miterlimit="8" fill="#F2AA84" fill-rule="evenodd"/><path d="M526.5 214.457C526.5 199.549 538.588 187.463 553.5 187.463 568.412 187.463 580.5 199.549 580.5 214.457 580.5 229.366 568.412 241.452 553.5 241.452 538.588 241.452 526.5 229.366 526.5 214.457Z" stroke="#000000" stroke-width="3.33473" stroke-miterlimit="8" fill="#F2AA84" fill-rule="evenodd"/><path d="M230.5 304.939C230.5 290.307 242.364 278.444 257 278.444 271.636 278.444 283.5 290.307 283.5 304.939 283.5 319.572 271.636 331.434 257 331.434 242.364 331.434 230.5 319.572 230.5 304.939Z" stroke="#000000" stroke-width="3.33473" stroke-miterlimit="8" fill="#F2AA84" fill-rule="evenodd"/><path d="M306.5 304.939C306.5 290.307 318.364 278.444 333 278.444 347.636 278.444 359.5 290.307 359.5 304.939 359.5 319.572 347.636 331.434 333 331.434 318.364 331.434 306.5 319.572 306.5 304.939Z" stroke="#000000" stroke-width="3.33473" stroke-miterlimit="8" fill="#F2AA84" fill-rule="evenodd"/><path d="M381.5 304.939C381.5 290.307 393.588 278.444 408.5 278.444 423.412 278.444 435.5 290.307 435.5 304.939 435.5 319.572 423.412 331.434 408.5 331.434 393.588 331.434 381.5 319.572 381.5 304.939Z" stroke="#000000" stroke-width="3.33473" stroke-miterlimit="8" fill="#F2AA84" fill-rule="evenodd"/><path d="M455.5 304.939C455.5 290.307 467.588 278.444 482.5 278.444 497.412 278.444 509.5 290.307 509.5 304.939 509.5 319.572 497.412 331.434 482.5 331.434 467.588 331.434 455.5 319.572 455.5 304.939Z" stroke="#000000" stroke-width="3.33473" stroke-miterlimit="8" fill="#F2AA84" fill-rule="evenodd"/><path d="M526.5 304.939C526.5 290.307 538.588 278.444 553.5 278.444 568.412 278.444 580.5 290.307 580.5 304.939 580.5 319.572 568.412 331.434 553.5 331.434 538.588 331.434 526.5 319.572 526.5 304.939Z" stroke="#000000" stroke-width="3.33473" stroke-miterlimit="8" fill="#F2AA84" fill-rule="evenodd"/><path d="M0 0 110.79 38.9696" stroke="#000000" stroke-width="5.0011" stroke-miterlimit="8" fill="none" fill-rule="evenodd" transform="matrix(-1.0002 0 0 1 367.312 146.471)"/><path d="M0 0 35.4303 38.9696" stroke="#000000" stroke-width="5.0011" stroke-miterlimit="8" fill="none" fill-rule="evenodd" transform="matrix(-1.0002 0 0 1 367.937 146.471)"/><path d="M367.5 146.471 408.332 185.44" stroke="#000000" stroke-width="5.0021" stroke-miterlimit="8" fill="none" fill-rule="evenodd"/><path d="M367.5 146.471 482.206 187.492" stroke="#000000" stroke-width="5.0021" stroke-miterlimit="8" fill="none" fill-rule="evenodd"/><path d="M367.5 146.471 553.345 187.492" stroke="#000000" stroke-width="5.0021" stroke-miterlimit="8" fill="none" fill-rule="evenodd"/><path d="M443.5 146.471 553.076 187.492" stroke="#000000" stroke-width="5.0021" stroke-miterlimit="8" fill="none" fill-rule="evenodd"/><path d="M0 0 111.684 38.9696" stroke="#000000" stroke-width="5.0011" stroke-miterlimit="8" fill="none" fill-rule="evenodd" transform="matrix(-1.0002 0 0 1 444.206 146.471)"/><path d="M0 0 35.4303 38.9696" stroke="#000000" stroke-width="5.0011" stroke-miterlimit="8" fill="none" fill-rule="evenodd" transform="matrix(-1.0002 0 0 1 443.937 146.471)"/><path d="M443.5 146.471 481.937 187.492" stroke="#000000" stroke-width="5.0021" stroke-miterlimit="8" fill="none" fill-rule="evenodd"/><path d="M0 0 187.044 38.9696" stroke="#000000" stroke-width="5.0011" stroke-miterlimit="8" fill="none" fill-rule="evenodd" transform="matrix(-1.0002 0 0 1 443.582 146.471)"/><path d="M0 0 144.985 36.918" stroke="#000000" stroke-width="5.0011" stroke-miterlimit="8" fill="none" fill-rule="evenodd" transform="matrix(1.0002 0 0 -1 408.5 278.37)"/><path d="M482.644 278.422 332.5 239.452" stroke="#000000" stroke-width="5.0021" stroke-miterlimit="8" fill="none" fill-rule="evenodd"/><path d="M0 0 151.614 38.9696" stroke="#000000" stroke-width="5.0011" stroke-miterlimit="8" fill="none" fill-rule="evenodd" transform="matrix(1.0002 0 0 -1 256.5 278.422)"/><path d="M0 0 0.00010501 38.9696" stroke="#000000" stroke-width="5.0011" stroke-miterlimit="8" fill="none" fill-rule="evenodd" transform="matrix(1.0002 0 0 -1 408.5 278.422)"/><path d="M0 0 0.00010501 36.918" stroke="#000000" stroke-width="5.0011" stroke-miterlimit="8" fill="none" fill-rule="evenodd" transform="matrix(1.0002 0 0 -1 482.5 278.37)"/><path d="M0 0 149.22 36.918" stroke="#000000" stroke-width="5.0011" stroke-miterlimit="8" fill="none" fill-rule="evenodd" transform="matrix(1.0002 0 0 -1 333.5 278.37)"/><path d="M553.157 278.422 256.5 239.452" stroke="#000000" stroke-width="5.0021" stroke-miterlimit="8" fill="none" fill-rule="evenodd"/><path d="M332.769 278.422 256.5 239.452" stroke="#000000" stroke-width="5.0021" stroke-miterlimit="8" fill="none" fill-rule="evenodd"/><path d="M408.144 278.422 256.5 239.452" stroke="#000000" stroke-width="5.0021" stroke-miterlimit="8" fill="none" fill-rule="evenodd"/><path d="M0 0 220.344 36.918" stroke="#000000" stroke-width="5.0011" stroke-miterlimit="8" fill="none" fill-rule="evenodd" transform="matrix(1.0002 0 0 -1 333.5 278.37)"/><path d="M553.513 278.422 408.5 239.452" stroke="#000000" stroke-width="5.0021" stroke-miterlimit="8" fill="none" fill-rule="evenodd"/><path d="M0 0 75.36 38.9696" stroke="#000000" stroke-width="5.0011" stroke-miterlimit="8" fill="none" fill-rule="evenodd" transform="matrix(1.0002 0 0 -1 256.5 278.422)"/><path d="M256.5 331.434 367.312 373.281" stroke="#000000" stroke-width="5.0021" stroke-miterlimit="8" fill="none" fill-rule="evenodd"/><path d="M333.5 331.434 368.043 373.281" stroke="#000000" stroke-width="5.0021" stroke-miterlimit="8" fill="none" fill-rule="evenodd"/><path d="M0 0 40.8236 41.8468" stroke="#000000" stroke-width="5.0011" stroke-miterlimit="8" fill="none" fill-rule="evenodd" transform="matrix(-1.0002 0 0 1 408.332 331.434)"/><path d="M0 0 114.684 41.8468" stroke="#000000" stroke-width="5.0011" stroke-miterlimit="8" fill="none" fill-rule="evenodd" transform="matrix(-1.0002 0 0 1 482.206 331.434)"/><path d="M0 0 185.808 41.8468" stroke="#000000" stroke-width="5.0011" stroke-miterlimit="8" fill="none" fill-rule="evenodd" transform="matrix(-1.0002 0 0 1 553.345 331.434)"/><path d="M0 0 0.00010501 38.9696" stroke="#000000" stroke-width="5.0011" stroke-miterlimit="8" fill="none" fill-rule="evenodd" transform="matrix(1.0002 0 0 -1 256.5 278.422)"/><path d="M2.50051-0.0135388 3.49122 182.962-1.50981 182.989-2.50051 0.0135388ZM8.47871 180.434 1.0584 195.478-6.52438 180.515Z" transform="matrix(-1.0002 0 0 1 367.559 427.415)"/><text font-family="Cambria Math,Cambria Math_MSFontService,sans-serif" font-weight="400" font-size="31.1135" transform="matrix(1 0 0 0.999801 310.176 408)">ℋ</text><text font-family="Cambria Math,Cambria Math_MSFontService,sans-serif" font-weight="400" font-size="31.1135" transform="matrix(1 0 0 0.999801 358.92 75)">𝑞</text><text font-family="Cambria Math,Cambria Math_MSFontService,sans-serif" font-weight="400" font-size="22.7129" transform="matrix(1 0 0 0.999801 375.153 82)">𝑖</text><text font-family="Cambria Math,Cambria Math_MSFontService,sans-serif" font-weight="400" font-size="30.6734" transform="matrix(1 0 0 0.999801 435.256 75)">𝑝</text><text font-family="Cambria Math,Cambria Math_MSFontService,sans-serif" font-weight="400" font-size="22.3916" transform="matrix(1 0 0 0.999801 451.456 81)">𝑖</text><path d="M9.98459-13.7034C9.01582-13.7034 8.11736-13.3206 7.28922-12.555 6.46107-11.7893 5.78658-10.6408 5.26574-9.10957 4.74489-7.57828 4.48447-6.06263 4.48447-4.5626 4.48447-3.62508 4.58604-2.89329 4.78916-2.36724 4.99229-1.84118 5.26053-1.4792 5.59387-1.28128 5.92721-1.08336 6.34388-0.984396 6.84389-0.984396 7.96892-0.984396 8.92988-1.43493 9.72677-2.33599 10.5237-3.23705 11.2034-4.59124 11.7659-6.39857 12.3284-8.2059 12.6096-9.63041 12.6096-10.6721 12.6096-11.7346 12.3935-12.5055 11.9612-12.9846 11.5289-13.4638 10.87-13.7034 9.98459-13.7034ZM43.9813-21.5786C44.7939-21.5786 45.5178-21.3598 46.1533-20.9223 46.7887-20.4848 47.3564-19.8077 47.8564-18.891L45.5282-17.891C45.1011-18.7556 44.7131-19.3572 44.3642-19.6957 44.0152-20.0343 43.5907-20.2036 43.0907-20.2036 42.8407-20.2036 42.6063-20.1671 42.3875-20.0942 42.1688-20.0213 41.9813-19.9015 41.825-19.7348 41.6688-19.5681 41.5282-19.3572 41.4032-19.102 41.2781-18.8468 41.1531-18.4874 41.0281-18.0238 40.9031-17.5603 40.7208-16.7712 40.4813-15.6566L38.45-6.28138C38.3145-5.64595 38.2078-5.05219 38.1296-4.50009 38.0515-3.948 38.0125-3.50528 38.0125-3.17194 38.0125-2.67193 38.1218-2.28911 38.3406-2.02348 38.5593-1.75785 38.8979-1.62503 39.3562-1.62503 39.7104-1.62503 40.0411-1.72139 40.3484-1.9141 40.6557-2.10682 41.2052-2.61985 41.9969-3.4532L42.9188-2.5938C42.148-1.7292 41.5229-1.12242 41.0438-0.773454 40.5646-0.424488 40.075-0.16667 39.575 0 39.075 0.16667 38.5177 0.250005 37.9031 0.250005 37.1218 0.250005 36.4708-0.0390633 35.9499-0.617201 35.4291-1.19534 35.1686-1.95317 35.1686-2.89069 35.1686-3.23444 35.2077-3.7032 35.2858-4.29697 35.364-4.89073 35.4603-5.43241 35.5749-5.922L36.5124-10.2658 29.0123-10.2658 27.981-5.46886C27.8247-4.73968 27.6268-4.08081 27.3872-3.49226 27.1476-2.90371 26.8456-2.37765 26.481-1.9141 26.1164-1.45055 25.6346-1.03648 25.0356-0.671889 24.4366-0.307298 23.8872-0.0625014 23.3871 0.0625014 22.8871 0.187504 22.3559 0.250005 21.7934 0.250005 21.0017 0.250005 20.2933 0.0286464 19.6683-0.414071 19.0433-0.856789 18.486-1.53128 17.9964-2.43755L20.1215-3.65633C20.559-2.79173 20.9808-2.15369 21.3871-1.74222 21.7934-1.33076 22.2413-1.12502 22.7309-1.12502 22.9809-1.12502 23.2309-1.1745 23.4809-1.27346 23.7309-1.37242 23.9575-1.56774 24.1606-1.85941 24.3637-2.15109 24.5408-2.56255 24.6919-3.09382 24.8429-3.62508 25.0434-4.48447 25.2934-5.67199L27.356-15.6253C27.5122-16.3858 27.7362-17.1149 28.0279-17.8129 28.3195-18.5108 28.6008-19.016 28.8716-19.3285L28.8404-19.4848C27.1112-19.4848 25.8013-19.4067 24.9106-19.2504 24.02-19.0942 23.3793-18.8285 22.9887-18.4535 22.5981-18.0785 22.4028-17.5368 22.4028-16.8285 22.4028-16.2972 22.585-15.6514 22.9496-14.8909L20.5433-13.9534C20.3142-14.3284 20.1501-14.68 20.0511-15.0081 19.9522-15.3363 19.9027-15.6982 19.9027-16.0941 19.9027-16.4587 19.9991-16.8415 20.1918-17.2426 20.3845-17.6436 20.7152-18.0733 21.184-18.5316 21.7257-19.0629 22.4028-19.5733 23.2153-20.0629 23.8715-20.4588 24.4965-20.7426 25.0903-20.9145 25.6841-21.0864 26.3403-21.2036 27.0591-21.2661 27.5383-21.3077 28.2675-21.3286 29.2466-21.3286L31.0279-21.3286 31.4498-20.4067C31.2623-20.0004 31.1009-19.5447 30.9654-19.0395 30.83-18.5342 30.6946-17.9795 30.5592-17.3754L29.4342-12.094 36.9187-12.094 37.7312-15.7972C37.9083-16.5889 38.1218-17.2764 38.3718-17.8598 38.6218-18.4431 38.9265-18.9613 39.2859-19.4145 39.6453-19.8676 40.1245-20.2791 40.7235-20.6489 41.3224-21.0187 41.8745-21.2661 42.3797-21.3911 42.885-21.5161 43.4188-21.5786 43.9813-21.5786ZM10.7971-22.4536C12.5367-22.4536 13.8388-21.8624 14.7034-20.6801 15.568-19.4978 16.0003-17.7087 16.0003-15.3128 16.0003-14.3649 15.917-13.2373 15.7503-11.9299 15.5837-10.6226 15.3024-9.26061 14.9066-7.84392 14.5107-6.42722 14.0524-5.22407 13.5315-4.23446 13.0107-3.24486 12.4326-2.42713 11.7971-1.78129 11.1617-1.13544 10.4299-0.63543 9.60177-0.281256 8.77362 0.0729183 7.83871 0.250005 6.79702 0.250005 5.23449 0.250005 3.99748-0.218755 3.086-1.15627 2.17453-2.09379 1.71879-3.46882 1.71879-5.28136 1.71879-6.91681 2.06254-8.48976 2.75006-10.0002 3.43757-11.5107 4.3803-12.7112 5.57824-13.6018 6.77619-14.4925 8.08871-14.9378 9.51583-14.9378 10.2658-14.9378 10.9221-14.8519 11.4846-14.68 12.0471-14.5081 12.6721-14.1722 13.3597-13.6722L13.3909-14.0628C13.4222-14.5628 13.4378-14.9951 13.4378-15.3597 13.4378-17.3285 13.1774-18.7582 12.6565-19.6489 12.1357-20.5395 11.3232-20.9848 10.219-20.9848 9.45853-20.9848 8.75279-20.8051 8.10173-20.4457 7.45068-20.0864 6.81264-19.5317 6.18763-18.7816L5.06261-18.7816 5.06261-20.0785C6.05221-20.7765 6.82046-21.2739 7.36734-21.5708 7.91423-21.8676 8.46112-22.089 9.008-22.2348 9.55489-22.3807 10.1513-22.4536 10.7971-22.4536Z" fill-rule="evenodd" transform="matrix(1.0002 0 0 1 205.952 447.837)"/><text fill="#000000" fill-opacity="0" font-family="Arial,Arial_MSFontService,sans-serif" font-size="22.7036" x="1.71879" y="-2.58794">𝜕ℋ</text><path d="M9.98459-13.7034C9.01581-13.7034 8.11736-13.3206 7.28922-12.555 6.46107-11.7893 5.78658-10.6408 5.26574-9.10957 4.74489-7.57828 4.48447-6.06263 4.48447-4.5626 4.48447-3.62508 4.58603-2.89329 4.78916-2.36724 4.99229-1.84118 5.26053-1.4792 5.59387-1.28128 5.92721-1.08336 6.34388-0.984396 6.84389-0.984396 7.96892-0.984396 8.92988-1.43493 9.72677-2.33599 10.5237-3.23705 11.2034-4.59124 11.7659-6.39857 12.3284-8.2059 12.6096-9.63041 12.6096-10.6721 12.6096-11.7346 12.3935-12.5055 11.9612-12.9846 11.5289-13.4638 10.87-13.7034 9.98459-13.7034ZM10.7971-22.4536C12.5367-22.4536 13.8388-21.8624 14.7034-20.6801 15.568-19.4978 16.0003-17.7087 16.0003-15.3128 16.0003-14.3649 15.917-13.2373 15.7503-11.9299 15.5837-10.6226 15.3024-9.26061 14.9066-7.84392 14.5107-6.42722 14.0524-5.22407 13.5315-4.23446 13.0107-3.24486 12.4326-2.42713 11.7971-1.78129 11.1617-1.13544 10.4299-0.63543 9.60176-0.281256 8.77362 0.0729183 7.83871 0.250005 6.79702 0.250005 5.23449 0.250005 3.99748-0.218755 3.086-1.15627 2.17453-2.09379 1.71879-3.46882 1.71879-5.28136 1.71879-6.91681 2.06254-8.48976 2.75006-10.0002 3.43757-11.5107 4.3803-12.7112 5.57824-13.6018 6.77618-14.4925 8.08871-14.9378 9.51583-14.9378 10.2658-14.9378 10.9221-14.8519 11.4846-14.68 12.0471-14.5081 12.6721-14.1722 13.3597-13.6722L13.3909-14.0628C13.4222-14.5628 13.4378-14.9951 13.4378-15.3597 13.4378-17.3285 13.1774-18.7582 12.6565-19.6489 12.1357-20.5395 11.3232-20.9848 10.219-20.9848 9.45853-20.9848 8.75279-20.8051 8.10173-20.4457 7.45068-20.0864 6.81264-19.5317 6.18763-18.7816L5.06261-18.7816 5.06261-20.0785C6.05221-20.7765 6.82046-21.2739 7.36734-21.5708 7.91423-21.8676 8.46112-22.089 9.008-22.2348 9.55489-22.3807 10.1513-22.4536 10.7971-22.4536Z" fill-rule="evenodd" transform="matrix(1.0002 0 0 1 207.673 493.464)"/><text fill="#000000" fill-opacity="0" font-family="Arial,Arial_MSFontService,sans-serif" font-size="22.7036" x="1.71879" y="-2.58794">𝜕</text><path d="M9.98459-13.969C8.92206-13.969 7.96892-13.5393 7.12515-12.68 6.28138-11.8206 5.61731-10.6617 5.13292-9.20332 4.64854-7.74495 4.40634-6.2918 4.40634-4.84385 4.40634-3.7605 4.55478-2.95058 4.85166-2.41411 5.14855-1.87764 5.64595-1.60941 6.34388-1.60941 6.66681-1.60941 6.99494-1.67972 7.32828-1.82035 7.66162-1.96098 8.00798-2.18755 8.36736-2.50005 8.72675-2.81256 9.08092-3.19278 9.42989-3.6407 9.77885-4.08863 10.0992-4.53916 10.3908-4.99229 10.6825-5.44543 10.9534-5.9819 11.2034-6.6017 11.4534-7.22151 11.6669-7.96892 11.844-8.84394L11.9846-9.51583C12.1409-10.2658 12.219-10.9742 12.219-11.6409 12.219-12.4534 12.0471-13.0445 11.7034-13.4143 11.3596-13.7841 10.7867-13.969 9.98459-13.969ZM9.70333-15.2034C10.3492-15.2034 10.9638-15.1279 11.5471-14.9769 12.1305-14.8258 12.7346-14.5576 13.3597-14.1722L14.7972-15.2034 15.7972-14.9534 11.7971 2.81256C11.62 3.60424 11.5315 4.19801 11.5315 4.59385 11.5315 5.05219 11.6487 5.37772 11.8831 5.57043 12.1174 5.76314 12.5784 5.89075 13.2659 5.95325L13.1253 6.71889 8.25017 6.71889 10.9377-3.53132 10.719-3.62508C9.82312-2.36463 8.90904-1.40628 7.97673-0.750016 7.04442-0.0937518 6.13555 0.23438 5.25011 0.23438 4.10425 0.23438 3.21621-0.197921 2.58599-1.06252 1.95577-1.92712 1.64066-3.14069 1.64066-4.70322 1.64066-6.49493 1.99223-8.21632 2.69537-9.8674 3.39851-11.5185 4.36468-12.8206 5.59387-13.7737 6.82306-14.7269 8.19288-15.2034 9.70333-15.2034Z" fill-rule="evenodd" transform="matrix(1.0002 0 0 1 226.327 493.464)"/><text fill="#000000" fill-opacity="0" font-family="Arial,Arial_MSFontService,sans-serif" font-size="21.9223" x="1.64066" y="3.9786">𝑞</text><path d="M5.47512-11.532 6.03403-11.532 4.34587-3.93524C4.23941-3.48658 4.16527-3.12918 4.12345-2.86303 4.08162-2.59688 4.06071-2.35734 4.06071-2.14442 4.06071-1.85546 4.11964-1.64634 4.23751-1.51706 4.35538-1.38779 4.53218-1.32315 4.76791-1.32315 4.90479-1.32315 5.04167-1.34977 5.17855-1.403 5.31542-1.45623 5.46181-1.53988 5.6177-1.65394 5.77358-1.76801 5.94468-1.91439 6.13099-2.09309 6.31729-2.27179 6.52451-2.48661 6.75264-2.73756L7.52828-1.98473C7.13286-1.5817 6.77355-1.24141 6.45037-0.963848 6.12719-0.68629 5.82111-0.460062 5.53215-0.285162 5.24318-0.110263 4.95992 0.0152087 4.68236 0.091252 4.40481 0.167295 4.11014 0.205317 3.79836 0.205317 3.5094 0.205317 3.24895 0.152087 3.01702 0.045626 2.78508-0.0608346 2.58547-0.207218 2.41818-0.393524 2.25088-0.57983 2.12161-0.802256 2.03035-1.0608 1.9391-1.31935 1.89348-1.60451 1.89348-1.91629 1.89348-2.16723 1.92389-2.47901 1.98473-2.85162 2.04556-3.22423 2.12351-3.62916 2.21856-4.06641 2.31362-4.50366 2.41818-4.96182 2.53224-5.4409 2.64631-5.91997 2.75847-6.39524 2.86873-6.86671 2.97899-7.33817 3.07785-7.79253 3.1653-8.22978 3.25275-8.66703 3.31549-9.06436 3.35351-9.42176 3.36872-9.4826 3.37632-9.54153 3.37632-9.59856 3.37632-9.65559 3.37632-9.70692 3.37632-9.75255 3.36111-10.0491 3.25655-10.2658 3.06264-10.4027 2.86873-10.5396 2.52464-10.6156 2.03035-10.6308L2.16723-11.4065ZM4.81354-16.1288 7.09484-16.1288 6.53592-13.6764 4.27743-13.6764Z" fill-rule="evenodd" transform="matrix(1.0002 0 0 1 242.874 499.998)"/><text fill="#000000" fill-opacity="0" font-family="Arial,Arial_MSFontService,sans-serif" font-size="16.3341" x="1.89348" y="-1.83644">𝑖</text><path d="M76.9846 40.9918 125.975 40.9918 125.975 42.9914 76.9846 42.9914Z" fill-rule="evenodd" transform="matrix(1.0002 0 0 1 128.88 421.056)"/><path d="M9.98459-13.7034C9.01582-13.7034 8.11736-13.3206 7.28922-12.555 6.46107-11.7893 5.78658-10.6408 5.26574-9.10957 4.74489-7.57828 4.48447-6.06263 4.48447-4.5626 4.48447-3.62508 4.58604-2.89329 4.78916-2.36724 4.99229-1.84118 5.26053-1.4792 5.59387-1.28128 5.92721-1.08336 6.34388-0.984396 6.84389-0.984396 7.96892-0.984396 8.92988-1.43493 9.72677-2.33599 10.5237-3.23705 11.2034-4.59124 11.7659-6.39857 12.3284-8.2059 12.6096-9.63041 12.6096-10.6721 12.6096-11.7346 12.3935-12.5055 11.9612-12.9846 11.5289-13.4638 10.87-13.7034 9.98459-13.7034ZM43.9813-21.5786C44.7939-21.5786 45.5178-21.3598 46.1533-20.9223 46.7887-20.4848 47.3564-19.8077 47.8564-18.891L45.5282-17.891C45.1011-18.7556 44.7131-19.3572 44.3642-19.6957 44.0152-20.0343 43.5907-20.2036 43.0907-20.2036 42.8407-20.2036 42.6063-20.1671 42.3875-20.0942 42.1688-20.0213 41.9813-19.9015 41.825-19.7348 41.6688-19.5681 41.5282-19.3572 41.4032-19.102 41.2781-18.8468 41.1531-18.4874 41.0281-18.0238 40.9031-17.5603 40.7208-16.7712 40.4813-15.6566L38.45-6.28138C38.3145-5.64595 38.2078-5.05219 38.1296-4.50009 38.0515-3.948 38.0125-3.50528 38.0125-3.17194 38.0125-2.67193 38.1218-2.28911 38.3406-2.02348 38.5593-1.75785 38.8979-1.62503 39.3562-1.62503 39.7104-1.62503 40.0411-1.72139 40.3484-1.9141 40.6557-2.10682 41.2052-2.61985 41.9969-3.4532L42.9188-2.5938C42.148-1.7292 41.5229-1.12242 41.0438-0.773454 40.5646-0.424488 40.075-0.16667 39.575 0 39.075 0.16667 38.5177 0.250005 37.9031 0.250005 37.1218 0.250005 36.4708-0.0390633 35.9499-0.617201 35.4291-1.19534 35.1686-1.95317 35.1686-2.89069 35.1686-3.23444 35.2077-3.7032 35.2858-4.29697 35.364-4.89073 35.4603-5.43241 35.5749-5.922L36.5124-10.2658 29.0123-10.2658 27.981-5.46886C27.8247-4.73968 27.6268-4.08081 27.3872-3.49226 27.1476-2.90371 26.8456-2.37765 26.481-1.9141 26.1164-1.45055 25.6346-1.03648 25.0356-0.671889 24.4366-0.307298 23.8872-0.0625014 23.3871 0.0625014 22.8871 0.187504 22.3559 0.250005 21.7934 0.250005 21.0017 0.250005 20.2933 0.0286464 19.6683-0.414071 19.0433-0.856789 18.486-1.53128 17.9964-2.43755L20.1215-3.65633C20.559-2.79173 20.9808-2.15369 21.3871-1.74222 21.7934-1.33076 22.2413-1.12502 22.7309-1.12502 22.9809-1.12502 23.2309-1.1745 23.4809-1.27346 23.7309-1.37242 23.9575-1.56774 24.1606-1.85941 24.3637-2.15109 24.5408-2.56255 24.6919-3.09382 24.8429-3.62508 25.0434-4.48447 25.2934-5.67199L27.356-15.6253C27.5122-16.3858 27.7362-17.1149 28.0279-17.8129 28.3195-18.5108 28.6008-19.016 28.8716-19.3285L28.8404-19.4848C27.1112-19.4848 25.8013-19.4067 24.9106-19.2504 24.02-19.0942 23.3793-18.8285 22.9887-18.4535 22.5981-18.0785 22.4028-17.5368 22.4028-16.8285 22.4028-16.2972 22.585-15.6514 22.9496-14.8909L20.5433-13.9534C20.3142-14.3284 20.1501-14.68 20.0511-15.0081 19.9522-15.3363 19.9027-15.6982 19.9027-16.0941 19.9027-16.4587 19.9991-16.8415 20.1918-17.2426 20.3845-17.6436 20.7152-18.0733 21.184-18.5316 21.7257-19.0629 22.4028-19.5733 23.2153-20.0629 23.8715-20.4588 24.4965-20.7426 25.0903-20.9145 25.6841-21.0864 26.3403-21.2036 27.0591-21.2661 27.5383-21.3077 28.2675-21.3286 29.2466-21.3286L31.0279-21.3286 31.4498-20.4067C31.2623-20.0004 31.1009-19.5447 30.9654-19.0395 30.83-18.5342 30.6946-17.9795 30.5592-17.3754L29.4342-12.094 36.9187-12.094 37.7312-15.7972C37.9083-16.5889 38.1218-17.2764 38.3718-17.8598 38.6218-18.4431 38.9265-18.9613 39.2859-19.4145 39.6453-19.8676 40.1245-20.2791 40.7235-20.6489 41.3224-21.0187 41.8745-21.2661 42.3797-21.3911 42.885-21.5161 43.4188-21.5786 43.9813-21.5786ZM10.7971-22.4536C12.5367-22.4536 13.8388-21.8624 14.7034-20.6801 15.568-19.4978 16.0003-17.7087 16.0003-15.3128 16.0003-14.3649 15.917-13.2373 15.7503-11.9299 15.5837-10.6226 15.3024-9.26061 14.9066-7.84392 14.5107-6.42722 14.0524-5.22407 13.5315-4.23446 13.0107-3.24486 12.4326-2.42713 11.7971-1.78129 11.1617-1.13544 10.4299-0.63543 9.60177-0.281256 8.77362 0.0729183 7.83871 0.250005 6.79702 0.250005 5.23449 0.250005 3.99748-0.218755 3.086-1.15627 2.17453-2.09379 1.71879-3.46882 1.71879-5.28136 1.71879-6.91681 2.06254-8.48976 2.75006-10.0002 3.43757-11.5107 4.3803-12.7112 5.57824-13.6018 6.77619-14.4925 8.08871-14.9378 9.51583-14.9378 10.2658-14.9378 10.9221-14.8519 11.4846-14.68 12.0471-14.5081 12.6721-14.1722 13.3597-13.6722L13.3909-14.0628C13.4222-14.5628 13.4378-14.9951 13.4378-15.3597 13.4378-17.3285 13.1774-18.7582 12.6565-19.6489 12.1357-20.5395 11.3232-20.9848 10.219-20.9848 9.45853-20.9848 8.75279-20.8051 8.10173-20.4457 7.45068-20.0864 6.81264-19.5317 6.18763-18.7816L5.06261-18.7816 5.06261-20.0785C6.05221-20.7765 6.82046-21.2739 7.36734-21.5708 7.91423-21.8676 8.46112-22.089 9.008-22.2348 9.55489-22.3807 10.1513-22.4536 10.7971-22.4536Z" fill-rule="evenodd" transform="matrix(1.0002 0 0 1 272.317 447.837)"/><text fill="#000000" fill-opacity="0" font-family="Arial,Arial_MSFontService,sans-serif" font-size="22.7036" x="1.71879" y="-2.58794">𝜕ℋ</text><path d="M9.98459-13.7034C9.01581-13.7034 8.11736-13.3206 7.28922-12.555 6.46107-11.7893 5.78658-10.6408 5.26574-9.10957 4.74489-7.57828 4.48447-6.06263 4.48447-4.5626 4.48447-3.62508 4.58603-2.89329 4.78916-2.36724 4.99229-1.84118 5.26053-1.4792 5.59387-1.28128 5.92721-1.08336 6.34388-0.984396 6.84389-0.984396 7.96892-0.984396 8.92988-1.43493 9.72677-2.33599 10.5237-3.23705 11.2034-4.59124 11.7659-6.39857 12.3284-8.2059 12.6096-9.63041 12.6096-10.6721 12.6096-11.7346 12.3935-12.5055 11.9612-12.9846 11.5289-13.4638 10.87-13.7034 9.98459-13.7034ZM10.7971-22.4536C12.5367-22.4536 13.8388-21.8624 14.7034-20.6801 15.568-19.4978 16.0003-17.7087 16.0003-15.3128 16.0003-14.3649 15.917-13.2373 15.7503-11.9299 15.5837-10.6226 15.3024-9.26061 14.9066-7.84392 14.5107-6.42722 14.0524-5.22407 13.5315-4.23446 13.0107-3.24486 12.4326-2.42713 11.7971-1.78129 11.1617-1.13544 10.4299-0.63543 9.60176-0.281256 8.77362 0.0729183 7.83871 0.250005 6.79702 0.250005 5.23449 0.250005 3.99748-0.218755 3.086-1.15627 2.17453-2.09379 1.71879-3.46882 1.71879-5.28136 1.71879-6.91681 2.06254-8.48976 2.75006-10.0002 3.43757-11.5107 4.3803-12.7112 5.57824-13.6018 6.77618-14.4925 8.08871-14.9378 9.51583-14.9378 10.2658-14.9378 10.9221-14.8519 11.4846-14.68 12.0471-14.5081 12.6721-14.1722 13.3597-13.6722L13.3909-14.0628C13.4222-14.5628 13.4378-14.9951 13.4378-15.3597 13.4378-17.3285 13.1774-18.7582 12.6565-19.6489 12.1357-20.5395 11.3232-20.9848 10.219-20.9848 9.45853-20.9848 8.75279-20.8051 8.10173-20.4457 7.45068-20.0864 6.81264-19.5317 6.18763-18.7816L5.06261-18.7816 5.06261-20.0785C6.05221-20.7765 6.82046-21.2739 7.36734-21.5708 7.91423-21.8676 8.46112-22.089 9.008-22.2348 9.55489-22.3807 10.1513-22.4536 10.7971-22.4536Z" fill-rule="evenodd" transform="matrix(1.0002 0 0 1 273.898 493.464)"/><text fill="#000000" fill-opacity="0" font-family="Arial,Arial_MSFontService,sans-serif" font-size="22.7036" x="1.71879" y="-2.58794">𝜕</text><path d="M11.5002-13.3597C10.969-13.3597 10.4455-13.18 9.9299-12.8206 9.41426-12.4612 8.84914-11.8857 8.23455-11.094 7.61995-10.3023 7.14078-9.52103 6.79702-8.75018 6.45326-7.97933 6.18242-7.0939 5.9845-6.09388L5.8595-5.43761C5.75533-4.88552 5.69022-4.46364 5.66418-4.17196 5.63814-3.88029 5.62512-3.59383 5.62512-3.31257 5.62512-2.50005 5.7996-1.90889 6.14857-1.5391 6.49753-1.1693 7.09911-0.984396 7.95329-0.984396 8.48455-0.984396 8.97415-1.08856 9.42207-1.2969 9.87-1.50524 10.2945-1.80733 10.6955-2.20317 11.0966-2.59901 11.4586-3.07819 11.7815-3.6407 12.1044-4.20321 12.3935-4.85687 12.6487-5.60168 12.9039-6.34649 13.0966-7.11213 13.2268-7.8986 13.3571-8.68508 13.4222-9.42207 13.4222-10.1096 13.4222-11.2034 13.2685-12.0185 12.9612-12.555 12.6539-13.0914 12.1669-13.3597 11.5002-13.3597ZM4.92198-15.2034C5.56783-15.2034 6.08086-14.9899 6.46107-14.5628 6.84129-14.1357 7.0314-13.568 7.0314-12.8596 7.0314-12.2763 6.9116-11.6617 6.67202-11.0159L6.85952-10.9534C8.78664-13.7763 10.7034-15.1878 12.6096-15.1878 13.7451-15.1878 14.6279-14.7555 15.2581-13.8909 15.8884-13.0263 16.2035-11.8075 16.2035-10.2346 16.2035-8.5158 15.8571-6.82566 15.1644-5.16417 14.4717-3.50268 13.5107-2.18494 12.2815-1.21096 11.0523-0.236984 9.67729 0.250005 8.15642 0.250005 6.77098 0.250005 5.61991-0.0520843 4.70322-0.656264L3.98446 2.76568C3.82821 3.50528 3.75008 4.11467 3.75008 4.59385 3.75008 5.05219 3.86727 5.37772 4.10165 5.57043 4.33603 5.76314 4.79177 5.89075 5.46886 5.95325L5.34386 6.71889 0.515636 6.71889 4.28134-9.85958C4.50009-10.8179 4.60947-11.6044 4.60947-12.219 4.60947-12.6357 4.54176-12.9378 4.40634-13.1253 4.27092-13.3128 4.05738-13.4065 3.7657-13.4065 3.44278-13.4065 3.10163-13.2737 2.74225-13.0081 2.38286-12.7425 1.89067-12.2607 1.26565-11.5627L0.375008-12.4378C1.31253-13.417 2.10682-14.1227 2.75787-14.555 3.40893-14.9873 4.1303-15.2034 4.92198-15.2034Z" fill-rule="evenodd" transform="matrix(1.0002 0 0 1 292.552 493.464)"/><text fill="#000000" fill-opacity="0" font-family="Arial,Arial_MSFontService,sans-serif" font-size="21.9223" x="0.375008" y="3.9786">𝑝</text><path d="M5.47512-11.532 6.03403-11.532 4.34587-3.93524C4.23941-3.48658 4.16527-3.12918 4.12345-2.86303 4.08162-2.59688 4.06071-2.35734 4.06071-2.14442 4.06071-1.85546 4.11964-1.64634 4.23751-1.51706 4.35538-1.38779 4.53218-1.32315 4.76791-1.32315 4.90479-1.32315 5.04167-1.34977 5.17855-1.403 5.31542-1.45623 5.46181-1.53988 5.6177-1.65394 5.77358-1.76801 5.94468-1.91439 6.13099-2.09309 6.31729-2.27179 6.52451-2.48661 6.75264-2.73756L7.52828-1.98473C7.13286-1.5817 6.77355-1.24141 6.45037-0.963848 6.12719-0.68629 5.82111-0.460062 5.53215-0.285162 5.24318-0.110263 4.95992 0.0152087 4.68236 0.091252 4.40481 0.167295 4.11014 0.205317 3.79836 0.205317 3.5094 0.205317 3.24895 0.152087 3.01702 0.045626 2.78508-0.0608346 2.58547-0.207218 2.41818-0.393524 2.25088-0.57983 2.12161-0.802256 2.03035-1.0608 1.9391-1.31935 1.89348-1.60451 1.89348-1.91629 1.89348-2.16723 1.92389-2.47901 1.98473-2.85162 2.04556-3.22423 2.12351-3.62916 2.21856-4.06641 2.31362-4.50366 2.41818-4.96182 2.53224-5.4409 2.64631-5.91997 2.75847-6.39524 2.86873-6.86671 2.97899-7.33817 3.07785-7.79253 3.1653-8.22978 3.25275-8.66703 3.31549-9.06436 3.35351-9.42176 3.36872-9.4826 3.37632-9.54153 3.37632-9.59856 3.37632-9.65559 3.37632-9.70692 3.37632-9.75255 3.36111-10.0491 3.25655-10.2658 3.06264-10.4027 2.86873-10.5396 2.52464-10.6156 2.03035-10.6308L2.16723-11.4065ZM4.81354-16.1288 7.09484-16.1288 6.53592-13.6764 4.27743-13.6764Z" fill-rule="evenodd" transform="matrix(1.0002 0 0 1 309.379 499.998)"/><text fill="#000000" fill-opacity="0" font-family="Arial,Arial_MSFontService,sans-serif" font-size="16.3341" x="1.89348" y="-1.83644">𝑖</text><path d="M76.9846 40.9918 125.975 40.9918 125.975 42.9914 76.9846 42.9914Z" fill-rule="evenodd" transform="matrix(1.0002 0 0 1 195.245 421.056)"/><text font-family="Aptos,Aptos_MSFontService,sans-serif" font-weight="400" font-size="26.6725" transform="matrix(1 0 0 0.999801 260.953 468)">,</text><path d="M9.98459-13.969C8.92206-13.969 7.96892-13.5393 7.12515-12.68 6.28138-11.8206 5.61731-10.6617 5.13292-9.20332 4.64854-7.74495 4.40634-6.2918 4.40634-4.84385 4.40634-3.7605 4.55478-2.95058 4.85166-2.41411 5.14855-1.87764 5.64595-1.60941 6.34388-1.60941 6.66681-1.60941 6.99494-1.67972 7.32828-1.82035 7.66162-1.96098 8.00798-2.18755 8.36736-2.50005 8.72675-2.81256 9.08092-3.19278 9.42989-3.6407 9.77885-4.08863 10.0992-4.53916 10.3908-4.99229 10.6825-5.44543 10.9534-5.9819 11.2034-6.6017 11.4534-7.22151 11.6669-7.96892 11.844-8.84394L11.9846-9.51583C12.1409-10.2658 12.219-10.9742 12.219-11.6409 12.219-12.4534 12.0471-13.0445 11.7034-13.4143 11.3596-13.7841 10.7867-13.969 9.98459-13.969ZM9.70333-15.2034C10.3492-15.2034 10.9638-15.1279 11.5471-14.9769 12.1305-14.8258 12.7346-14.5576 13.3597-14.1722L14.7972-15.2034 15.7972-14.9534 11.7971 2.81256C11.62 3.60424 11.5315 4.19801 11.5315 4.59385 11.5315 5.05219 11.6487 5.37772 11.8831 5.57043 12.1174 5.76314 12.5784 5.89075 13.2659 5.95325L13.1253 6.71889 8.25017 6.71889 10.9377-3.53132 10.719-3.62508C9.82312-2.36463 8.90904-1.40628 7.97673-0.750016 7.04442-0.0937518 6.13555 0.23438 5.25011 0.23438 4.10425 0.23438 3.21621-0.197921 2.58599-1.06252 1.95577-1.92712 1.64066-3.14069 1.64066-4.70322 1.64066-6.49493 1.99223-8.21632 2.69537-9.8674 3.39851-11.5185 4.36468-12.8206 5.59387-13.7737 6.82306-14.7269 8.19288-15.2034 9.70333-15.2034Z" fill-rule="evenodd" transform="matrix(1.0002 0 0 1 171.923 676.991)"/><text fill="#000000" fill-opacity="0" font-family="Arial,Arial_MSFontService,sans-serif" font-size="21.9223" x="1.64066" y="3.9786">𝑞</text><path d="M-4.50009-21.7348C-4.0105-21.7348-3.59903-21.5604-3.26569-21.2114-2.93235-20.8624-2.76568-20.4223-2.76568-19.891-2.76568-19.3598-2.93235-18.9197-3.26569-18.5707-3.59903-18.2217-4.0105-18.0473-4.50009-18.0473-5.0001-18.0473-5.41678-18.2217-5.75012-18.5707-6.08346-18.9197-6.25013-19.3598-6.25013-19.891-6.25013-20.4223-6.08346-20.8624-5.75012-21.2114-5.41678-21.5604-5.0001-21.7348-4.50009-21.7348Z" fill-rule="evenodd" transform="matrix(1.0002 0 0 1 186.489 676.991)"/><text fill="#000000" fill-opacity="0" font-family="Arial,Arial_MSFontService,sans-serif" font-size="3.68758" x="-6.25013" y="-18.5082">ሶ</text><path d="M5.47512-11.532 6.03403-11.532 4.34587-3.93524C4.23941-3.48658 4.16527-3.12918 4.12345-2.86303 4.08162-2.59688 4.06071-2.35734 4.06071-2.14442 4.06071-1.85546 4.11964-1.64634 4.23751-1.51706 4.35538-1.38779 4.53218-1.32315 4.76791-1.32315 4.90479-1.32315 5.04167-1.34977 5.17855-1.403 5.31542-1.45623 5.46181-1.53988 5.6177-1.65394 5.77358-1.76801 5.94468-1.91439 6.13099-2.09309 6.31729-2.27179 6.52451-2.48661 6.75264-2.73756L7.52828-1.98473C7.13286-1.5817 6.77355-1.24141 6.45037-0.963848 6.12719-0.68629 5.82111-0.460062 5.53215-0.285162 5.24318-0.110263 4.95992 0.0152087 4.68236 0.091252 4.40481 0.167295 4.11014 0.205317 3.79836 0.205317 3.5094 0.205317 3.24895 0.152087 3.01702 0.045626 2.78508-0.0608346 2.58547-0.207218 2.41818-0.393524 2.25088-0.57983 2.12161-0.802256 2.03035-1.0608 1.9391-1.31935 1.89348-1.60451 1.89348-1.91629 1.89348-2.16723 1.92389-2.47901 1.98473-2.85162 2.04556-3.22423 2.12351-3.62916 2.21856-4.06641 2.31362-4.50366 2.41818-4.96182 2.53224-5.4409 2.64631-5.91997 2.75847-6.39524 2.86873-6.86671 2.97899-7.33817 3.07785-7.79253 3.1653-8.22978 3.25275-8.66703 3.31549-9.06436 3.35351-9.42176 3.36872-9.4826 3.37632-9.54153 3.37632-9.59856 3.37632-9.65559 3.37632-9.70692 3.37632-9.75255 3.36111-10.0491 3.25655-10.2658 3.06264-10.4027 2.86873-10.5396 2.52464-10.6156 2.03035-10.6308L2.16723-11.4065ZM4.81354-16.1288 7.09484-16.1288 6.53592-13.6764 4.27743-13.6764Z" fill-rule="evenodd" transform="matrix(1.0002 0 0 1 188.47 683.525)"/><text fill="#000000" fill-opacity="0" font-family="Arial,Arial_MSFontService,sans-serif" font-size="16.3341" x="1.89348" y="-1.83644">𝑖</text><path d="M2.32817-6.93765 21.5786-6.93765 21.5786-4.85948 2.32817-4.85948ZM2.32817-13.4222 21.5786-13.4222 21.5786-11.344 2.32817-11.344Z" fill-rule="evenodd" transform="matrix(1.0002 0 0 1 214.661 676.991)"/><text fill="#000000" fill-opacity="0" font-family="Arial,Arial_MSFontService,sans-serif" font-size="8.56268" x="2.32817" y="-5.92981">=</text><path d="M9.98459-13.7034C9.01582-13.7034 8.11736-13.3206 7.28922-12.555 6.46107-11.7893 5.78658-10.6408 5.26574-9.10957 4.74489-7.57828 4.48447-6.06263 4.48447-4.5626 4.48447-3.62508 4.58604-2.89329 4.78916-2.36724 4.99229-1.84118 5.26053-1.4792 5.59387-1.28128 5.92721-1.08336 6.34388-0.984396 6.84389-0.984396 7.96892-0.984396 8.92988-1.43493 9.72677-2.33599 10.5237-3.23705 11.2034-4.59124 11.7659-6.39857 12.3284-8.2059 12.6096-9.63041 12.6096-10.6721 12.6096-11.7346 12.3935-12.5055 11.9612-12.9846 11.5289-13.4638 10.87-13.7034 9.98459-13.7034ZM43.9813-21.5786C44.7939-21.5786 45.5178-21.3598 46.1533-20.9223 46.7887-20.4848 47.3564-19.8077 47.8564-18.891L45.5282-17.891C45.1011-18.7556 44.7131-19.3572 44.3642-19.6957 44.0152-20.0343 43.5907-20.2036 43.0907-20.2036 42.8407-20.2036 42.6063-20.1671 42.3875-20.0942 42.1688-20.0213 41.9813-19.9015 41.825-19.7348 41.6688-19.5681 41.5282-19.3572 41.4032-19.102 41.2781-18.8468 41.1531-18.4874 41.0281-18.0238 40.9031-17.5603 40.7208-16.7712 40.4813-15.6566L38.45-6.28138C38.3145-5.64595 38.2078-5.05219 38.1296-4.50009 38.0515-3.948 38.0125-3.50528 38.0125-3.17194 38.0125-2.67193 38.1218-2.28911 38.3406-2.02348 38.5593-1.75785 38.8979-1.62503 39.3562-1.62503 39.7104-1.62503 40.0411-1.72139 40.3484-1.9141 40.6557-2.10682 41.2052-2.61985 41.9969-3.4532L42.9188-2.5938C42.148-1.7292 41.5229-1.12242 41.0438-0.773454 40.5646-0.424488 40.075-0.16667 39.575 0 39.075 0.16667 38.5177 0.250005 37.9031 0.250005 37.1218 0.250005 36.4708-0.0390633 35.9499-0.617201 35.4291-1.19534 35.1686-1.95317 35.1686-2.89069 35.1686-3.23444 35.2077-3.7032 35.2858-4.29697 35.364-4.89073 35.4603-5.43241 35.5749-5.922L36.5124-10.2658 29.0123-10.2658 27.981-5.46886C27.8247-4.73968 27.6268-4.08081 27.3872-3.49226 27.1476-2.90371 26.8456-2.37765 26.481-1.9141 26.1164-1.45055 25.6346-1.03648 25.0356-0.671889 24.4366-0.307298 23.8872-0.0625014 23.3871 0.0625014 22.8871 0.187504 22.3559 0.250005 21.7934 0.250005 21.0017 0.250005 20.2933 0.0286464 19.6683-0.414071 19.0433-0.856789 18.486-1.53128 17.9964-2.43755L20.1215-3.65633C20.559-2.79173 20.9808-2.15369 21.3871-1.74222 21.7934-1.33076 22.2413-1.12502 22.7309-1.12502 22.9809-1.12502 23.2309-1.1745 23.4809-1.27346 23.7309-1.37242 23.9575-1.56774 24.1606-1.85941 24.3637-2.15109 24.5408-2.56255 24.6919-3.09382 24.8429-3.62508 25.0434-4.48447 25.2934-5.67199L27.356-15.6253C27.5122-16.3858 27.7362-17.1149 28.0279-17.8129 28.3195-18.5108 28.6008-19.016 28.8716-19.3285L28.8404-19.4848C27.1112-19.4848 25.8013-19.4067 24.9106-19.2504 24.02-19.0942 23.3793-18.8285 22.9887-18.4535 22.5981-18.0785 22.4028-17.5368 22.4028-16.8285 22.4028-16.2972 22.585-15.6514 22.9496-14.8909L20.5433-13.9534C20.3142-14.3284 20.1501-14.68 20.0511-15.0081 19.9522-15.3363 19.9027-15.6982 19.9027-16.0941 19.9027-16.4587 19.9991-16.8415 20.1918-17.2426 20.3845-17.6436 20.7152-18.0733 21.184-18.5316 21.7257-19.0629 22.4028-19.5733 23.2153-20.0629 23.8715-20.4588 24.4965-20.7426 25.0903-20.9145 25.6841-21.0864 26.3403-21.2036 27.0591-21.2661 27.5383-21.3077 28.2675-21.3286 29.2466-21.3286L31.0279-21.3286 31.4498-20.4067C31.2623-20.0004 31.1009-19.5447 30.9654-19.0395 30.83-18.5342 30.6946-17.9795 30.5592-17.3754L29.4342-12.094 36.9187-12.094 37.7312-15.7972C37.9083-16.5889 38.1218-17.2764 38.3718-17.8598 38.6218-18.4431 38.9265-18.9613 39.2859-19.4145 39.6453-19.8676 40.1245-20.2791 40.7235-20.6489 41.3224-21.0187 41.8745-21.2661 42.3797-21.3911 42.885-21.5161 43.4188-21.5786 43.9813-21.5786ZM10.7971-22.4536C12.5367-22.4536 13.8388-21.8624 14.7034-20.6801 15.568-19.4978 16.0003-17.7087 16.0003-15.3128 16.0003-14.3649 15.917-13.2373 15.7503-11.9299 15.5837-10.6226 15.3024-9.26061 14.9066-7.84392 14.5107-6.42722 14.0524-5.22407 13.5315-4.23446 13.0107-3.24486 12.4326-2.42713 11.7971-1.78129 11.1617-1.13544 10.4299-0.63543 9.60177-0.281256 8.77362 0.0729183 7.83871 0.250005 6.79702 0.250005 5.23449 0.250005 3.99748-0.218755 3.086-1.15627 2.17453-2.09379 1.71879-3.46882 1.71879-5.28136 1.71879-6.91681 2.06254-8.48976 2.75006-10.0002 3.43757-11.5107 4.3803-12.7112 5.57824-13.6018 6.77619-14.4925 8.08871-14.9378 9.51583-14.9378 10.2658-14.9378 10.9221-14.8519 11.4846-14.68 12.0471-14.5081 12.6721-14.1722 13.3597-13.6722L13.3909-14.0628C13.4222-14.5628 13.4378-14.9951 13.4378-15.3597 13.4378-17.3285 13.1774-18.7582 12.6565-19.6489 12.1357-20.5395 11.3232-20.9848 10.219-20.9848 9.45853-20.9848 8.75279-20.8051 8.10173-20.4457 7.45068-20.0864 6.81264-19.5317 6.18763-18.7816L5.06261-18.7816 5.06261-20.0785C6.05221-20.7765 6.82046-21.2739 7.36734-21.5708 7.91423-21.8676 8.46112-22.089 9.008-22.2348 9.55489-22.3807 10.1513-22.4536 10.7971-22.4536Z" fill-rule="evenodd" transform="matrix(1.0002 0 0 1 254.398 652.771)"/><text fill="#000000" fill-opacity="0" font-family="Arial,Arial_MSFontService,sans-serif" font-size="22.7036" x="1.71879" y="-2.58794">𝜕ℋ</text><path d="M9.98459-13.7034C9.01581-13.7034 8.11736-13.3206 7.28922-12.555 6.46107-11.7893 5.78658-10.6408 5.26574-9.10957 4.74489-7.57828 4.48447-6.06263 4.48447-4.5626 4.48447-3.62508 4.58603-2.89329 4.78916-2.36724 4.99229-1.84118 5.26053-1.4792 5.59387-1.28128 5.92721-1.08336 6.34388-0.984396 6.84389-0.984396 7.96892-0.984396 8.92988-1.43493 9.72677-2.33599 10.5237-3.23705 11.2034-4.59124 11.7659-6.39857 12.3284-8.2059 12.6096-9.63041 12.6096-10.6721 12.6096-11.7346 12.3935-12.5055 11.9612-12.9846 11.5289-13.4638 10.87-13.7034 9.98459-13.7034ZM10.7971-22.4536C12.5367-22.4536 13.8388-21.8624 14.7034-20.6801 15.568-19.4978 16.0003-17.7087 16.0003-15.3128 16.0003-14.3649 15.917-13.2373 15.7503-11.9299 15.5837-10.6226 15.3024-9.26061 14.9066-7.84392 14.5107-6.42722 14.0524-5.22407 13.5315-4.23446 13.0107-3.24486 12.4326-2.42713 11.7971-1.78129 11.1617-1.13544 10.4299-0.63543 9.60176-0.281256 8.77362 0.0729183 7.83871 0.250005 6.79702 0.250005 5.23449 0.250005 3.99748-0.218755 3.086-1.15627 2.17453-2.09379 1.71879-3.46882 1.71879-5.28136 1.71879-6.91681 2.06254-8.48976 2.75006-10.0002 3.43757-11.5107 4.3803-12.7112 5.57824-13.6018 6.77618-14.4925 8.08871-14.9378 9.51583-14.9378 10.2658-14.9378 10.9221-14.8519 11.4846-14.68 12.0471-14.5081 12.6721-14.1722 13.3597-13.6722L13.3909-14.0628C13.4222-14.5628 13.4378-14.9951 13.4378-15.3597 13.4378-17.3285 13.1774-18.7582 12.6565-19.6489 12.1357-20.5395 11.3232-20.9848 10.219-20.9848 9.45853-20.9848 8.75279-20.8051 8.10173-20.4457 7.45068-20.0864 6.81264-19.5317 6.18763-18.7816L5.06261-18.7816 5.06261-20.0785C6.05221-20.7765 6.82046-21.2739 7.36734-21.5708 7.91423-21.8676 8.46112-22.089 9.008-22.2348 9.55489-22.3807 10.1513-22.4536 10.7971-22.4536Z" fill-rule="evenodd" transform="matrix(1.0002 0 0 1 255.979 698.398)"/><text fill="#000000" fill-opacity="0" font-family="Arial,Arial_MSFontService,sans-serif" font-size="22.7036" x="1.71879" y="-2.58794">𝜕</text><path d="M11.5002-13.3597C10.969-13.3597 10.4455-13.18 9.9299-12.8206 9.41426-12.4612 8.84914-11.8857 8.23455-11.094 7.61995-10.3023 7.14078-9.52103 6.79702-8.75018 6.45326-7.97933 6.18242-7.0939 5.9845-6.09388L5.8595-5.43761C5.75533-4.88552 5.69022-4.46364 5.66418-4.17196 5.63814-3.88029 5.62512-3.59383 5.62512-3.31257 5.62512-2.50005 5.7996-1.90889 6.14857-1.5391 6.49753-1.1693 7.09911-0.984396 7.95329-0.984396 8.48455-0.984396 8.97415-1.08856 9.42207-1.2969 9.87-1.50524 10.2945-1.80733 10.6955-2.20317 11.0966-2.59901 11.4586-3.07819 11.7815-3.6407 12.1044-4.20321 12.3935-4.85687 12.6487-5.60168 12.9039-6.34649 13.0966-7.11213 13.2268-7.8986 13.3571-8.68508 13.4222-9.42207 13.4222-10.1096 13.4222-11.2034 13.2685-12.0185 12.9612-12.555 12.6539-13.0914 12.1669-13.3597 11.5002-13.3597ZM4.92198-15.2034C5.56783-15.2034 6.08086-14.9899 6.46107-14.5628 6.84129-14.1357 7.0314-13.568 7.0314-12.8596 7.0314-12.2763 6.9116-11.6617 6.67202-11.0159L6.85952-10.9534C8.78664-13.7763 10.7034-15.1878 12.6096-15.1878 13.7451-15.1878 14.6279-14.7555 15.2581-13.8909 15.8884-13.0263 16.2035-11.8075 16.2035-10.2346 16.2035-8.5158 15.8571-6.82566 15.1644-5.16417 14.4717-3.50268 13.5107-2.18494 12.2815-1.21096 11.0523-0.236984 9.67729 0.250005 8.15642 0.250005 6.77098 0.250005 5.61991-0.0520843 4.70322-0.656264L3.98446 2.76568C3.82821 3.50528 3.75008 4.11467 3.75008 4.59385 3.75008 5.05219 3.86727 5.37772 4.10165 5.57043 4.33603 5.76314 4.79177 5.89075 5.46886 5.95325L5.34386 6.71889 0.515636 6.71889 4.28134-9.85958C4.50009-10.8179 4.60947-11.6044 4.60947-12.219 4.60947-12.6357 4.54176-12.9378 4.40634-13.1253 4.27092-13.3128 4.05738-13.4065 3.7657-13.4065 3.44278-13.4065 3.10163-13.2737 2.74225-13.0081 2.38286-12.7425 1.89067-12.2607 1.26565-11.5627L0.375008-12.4378C1.31253-13.417 2.10682-14.1227 2.75787-14.555 3.40893-14.9873 4.1303-15.2034 4.92198-15.2034Z" fill-rule="evenodd" transform="matrix(1.0002 0 0 1 274.633 698.398)"/><text fill="#000000" fill-opacity="0" font-family="Arial,Arial_MSFontService,sans-serif" font-size="21.9223" x="0.375008" y="3.9786">𝑝</text><path d="M5.47512-11.532 6.03403-11.532 4.34587-3.93524C4.23941-3.48658 4.16527-3.12918 4.12345-2.86303 4.08162-2.59688 4.06071-2.35734 4.06071-2.14442 4.06071-1.85546 4.11964-1.64634 4.23751-1.51706 4.35538-1.38779 4.53218-1.32315 4.76791-1.32315 4.90479-1.32315 5.04167-1.34977 5.17855-1.403 5.31542-1.45623 5.46181-1.53988 5.6177-1.65394 5.77358-1.76801 5.94468-1.91439 6.13099-2.09309 6.31729-2.27179 6.52451-2.48661 6.75264-2.73756L7.52828-1.98473C7.13286-1.5817 6.77355-1.24141 6.45037-0.963848 6.12719-0.68629 5.82111-0.460062 5.53215-0.285162 5.24318-0.110263 4.95992 0.0152087 4.68236 0.091252 4.40481 0.167295 4.11014 0.205317 3.79836 0.205317 3.5094 0.205317 3.24895 0.152087 3.01702 0.045626 2.78508-0.0608346 2.58547-0.207218 2.41818-0.393524 2.25088-0.57983 2.12161-0.802256 2.03035-1.0608 1.9391-1.31935 1.89348-1.60451 1.89348-1.91629 1.89348-2.16723 1.92389-2.47901 1.98473-2.85162 2.04556-3.22423 2.12351-3.62916 2.21856-4.06641 2.31362-4.50366 2.41818-4.96182 2.53224-5.4409 2.64631-5.91997 2.75847-6.39524 2.86873-6.86671 2.97899-7.33817 3.07785-7.79253 3.1653-8.22978 3.25275-8.66703 3.31549-9.06436 3.35351-9.42176 3.36872-9.4826 3.37632-9.54153 3.37632-9.59856 3.37632-9.65559 3.37632-9.70692 3.37632-9.75255 3.36111-10.0491 3.25655-10.2658 3.06264-10.4027 2.86873-10.5396 2.52464-10.6156 2.03035-10.6308L2.16723-11.4065ZM4.81354-16.1288 7.09484-16.1288 6.53592-13.6764 4.27743-13.6764Z" fill-rule="evenodd" transform="matrix(1.0002 0 0 1 291.46 704.932)"/><text fill="#000000" fill-opacity="0" font-family="Arial,Arial_MSFontService,sans-serif" font-size="16.3341" x="1.89348" y="-1.83644">𝑖</text><path d="M195.961 40.9918 244.951 40.9918 244.951 42.9914 195.961 42.9914Z" fill-rule="evenodd" transform="matrix(1.0002 0 0 1 58.1222 625.99)"/><path d="M11.5002-13.3597C10.969-13.3597 10.4455-13.18 9.9299-12.8206 9.41426-12.4612 8.84914-11.8857 8.23455-11.094 7.61995-10.3023 7.14078-9.52103 6.79702-8.75018 6.45326-7.97933 6.18242-7.0939 5.9845-6.09388L5.8595-5.43761C5.75533-4.88552 5.69022-4.46364 5.66418-4.17196 5.63814-3.88029 5.62512-3.59383 5.62512-3.31257 5.62512-2.50005 5.7996-1.90889 6.14857-1.5391 6.49753-1.1693 7.09911-0.984396 7.95329-0.984396 8.48455-0.984396 8.97415-1.08856 9.42207-1.2969 9.87-1.50524 10.2945-1.80733 10.6955-2.20317 11.0966-2.59901 11.4586-3.07819 11.7815-3.6407 12.1044-4.20321 12.3935-4.85687 12.6487-5.60168 12.9039-6.34649 13.0966-7.11213 13.2268-7.8986 13.3571-8.68508 13.4222-9.42207 13.4222-10.1096 13.4222-11.2034 13.2685-12.0185 12.9612-12.555 12.6539-13.0914 12.1669-13.3597 11.5002-13.3597ZM4.92198-15.2034C5.56783-15.2034 6.08086-14.9899 6.46107-14.5628 6.84129-14.1357 7.0314-13.568 7.0314-12.8596 7.0314-12.2763 6.9116-11.6617 6.67202-11.0159L6.85952-10.9534C8.78664-13.7763 10.7034-15.1878 12.6096-15.1878 13.7451-15.1878 14.6279-14.7555 15.2581-13.8909 15.8884-13.0263 16.2035-11.8075 16.2035-10.2346 16.2035-8.5158 15.8571-6.82566 15.1644-5.16417 14.4717-3.50268 13.5107-2.18494 12.2815-1.21096 11.0523-0.236984 9.67729 0.250005 8.15642 0.250005 6.77098 0.250005 5.61991-0.0520843 4.70322-0.656264L3.98446 2.76568C3.82821 3.50528 3.75008 4.11467 3.75008 4.59385 3.75008 5.05219 3.86727 5.37772 4.10165 5.57043 4.33603 5.76314 4.79177 5.89075 5.46886 5.95325L5.34386 6.71889 0.515636 6.71889 4.28134-9.85958C4.50009-10.8179 4.60947-11.6044 4.60947-12.219 4.60947-12.6357 4.54176-12.9378 4.40634-13.1253 4.27092-13.3128 4.05738-13.4065 3.7657-13.4065 3.44278-13.4065 3.10163-13.2737 2.74225-13.0081 2.38286-12.7425 1.89067-12.2607 1.26565-11.5627L0.375008-12.4378C1.31253-13.417 2.10682-14.1227 2.75787-14.555 3.40893-14.9873 4.1303-15.2034 4.92198-15.2034Z" fill-rule="evenodd" transform="matrix(1.0002 0 0 1 350.692 676.991)"/><text fill="#000000" fill-opacity="0" font-family="Arial,Arial_MSFontService,sans-serif" font-size="21.9223" x="0.375008" y="3.9786">𝑝</text><path d="M-4.50009-21.7348C-4.0105-21.7348-3.59903-21.5604-3.26569-21.2114-2.93235-20.8624-2.76568-20.4223-2.76568-19.891-2.76568-19.3598-2.93235-18.9197-3.26569-18.5707-3.59903-18.2217-4.0105-18.0473-4.50009-18.0473-5.0001-18.0473-5.41678-18.2217-5.75012-18.5707-6.08346-18.9197-6.25013-19.3598-6.25013-19.891-6.25013-20.4223-6.08346-20.8624-5.75012-21.2114-5.41678-21.5604-5.0001-21.7348-4.50009-21.7348Z" fill-rule="evenodd" transform="matrix(1.0002 0 0 1 366.572 676.991)"/><text fill="#000000" fill-opacity="0" font-family="Arial,Arial_MSFontService,sans-serif" font-size="3.68758" x="-6.25013" y="-18.5082">ሶ</text><path d="M5.47512-11.532 6.03403-11.532 4.34587-3.93524C4.23941-3.48658 4.16527-3.12918 4.12345-2.86303 4.08162-2.59688 4.06071-2.35734 4.06071-2.14442 4.06071-1.85546 4.11964-1.64634 4.23751-1.51706 4.35538-1.38779 4.53218-1.32315 4.76791-1.32315 4.90479-1.32315 5.04167-1.34977 5.17855-1.403 5.31542-1.45623 5.46181-1.53988 5.6177-1.65394 5.77358-1.76801 5.94468-1.91439 6.13099-2.09309 6.31729-2.27179 6.52451-2.48661 6.75264-2.73756L7.52828-1.98473C7.13286-1.5817 6.77355-1.24141 6.45037-0.963848 6.12719-0.68629 5.82111-0.460062 5.53215-0.285162 5.24318-0.110263 4.95992 0.0152087 4.68236 0.091252 4.40481 0.167295 4.11014 0.205317 3.79836 0.205317 3.5094 0.205317 3.24895 0.152087 3.01702 0.045626 2.78508-0.0608346 2.58547-0.207218 2.41818-0.393524 2.25088-0.57983 2.12161-0.802256 2.03035-1.0608 1.9391-1.31935 1.89348-1.60451 1.89348-1.91629 1.89348-2.16723 1.92389-2.47901 1.98473-2.85162 2.04556-3.22423 2.12351-3.62916 2.21856-4.06641 2.31362-4.50366 2.41818-4.96182 2.53224-5.4409 2.64631-5.91997 2.75847-6.39524 2.86873-6.86671 2.97899-7.33817 3.07785-7.79253 3.1653-8.22978 3.25275-8.66703 3.31549-9.06436 3.35351-9.42176 3.36872-9.4826 3.37632-9.54153 3.37632-9.59856 3.37632-9.65559 3.37632-9.70692 3.37632-9.75255 3.36111-10.0491 3.25655-10.2658 3.06264-10.4027 2.86873-10.5396 2.52464-10.6156 2.03035-10.6308L2.16723-11.4065ZM4.81354-16.1288 7.09484-16.1288 6.53592-13.6764 4.27743-13.6764Z" fill-rule="evenodd" transform="matrix(1.0002 0 0 1 367.519 683.525)"/><text fill="#000000" fill-opacity="0" font-family="Arial,Arial_MSFontService,sans-serif" font-size="16.3341" x="1.89348" y="-1.83644">𝑖</text><path d="M2.32817-6.93765 21.5786-6.93765 21.5786-4.85948 2.32817-4.85948ZM2.32817-13.4222 21.5786-13.4222 21.5786-11.344 2.32817-11.344Z" fill-rule="evenodd" transform="matrix(1.0002 0 0 1 393.71 676.991)"/><text fill="#000000" fill-opacity="0" font-family="Arial,Arial_MSFontService,sans-serif" font-size="8.56268" x="2.32817" y="-5.92981">=</text><path d="M2.32817-10.1877 21.5786-10.1877 21.5786-8.10955 2.32817-8.10955Z" fill-rule="evenodd" transform="matrix(1.0002 0 0 1 433.446 676.991)"/><text fill="#000000" fill-opacity="0" font-family="Arial,Arial_MSFontService,sans-serif" font-size="2.07817" x="2.32817" y="-8.36932">−</text><path d="M9.98459-13.7034C9.01582-13.7034 8.11736-13.3206 7.28922-12.555 6.46107-11.7893 5.78658-10.6408 5.26574-9.10957 4.74489-7.57828 4.48447-6.06263 4.48447-4.5626 4.48447-3.62508 4.58604-2.89329 4.78916-2.36724 4.99229-1.84118 5.26053-1.4792 5.59387-1.28128 5.92721-1.08336 6.34388-0.984396 6.84389-0.984396 7.96892-0.984396 8.92988-1.43493 9.72677-2.33599 10.5237-3.23705 11.2034-4.59124 11.7659-6.39857 12.3284-8.2059 12.6096-9.63041 12.6096-10.6721 12.6096-11.7346 12.3935-12.5055 11.9612-12.9846 11.5289-13.4638 10.87-13.7034 9.98459-13.7034ZM43.9813-21.5786C44.7939-21.5786 45.5178-21.3598 46.1533-20.9223 46.7887-20.4848 47.3564-19.8077 47.8564-18.891L45.5282-17.891C45.1011-18.7556 44.7131-19.3572 44.3642-19.6957 44.0152-20.0343 43.5907-20.2036 43.0907-20.2036 42.8407-20.2036 42.6063-20.1671 42.3875-20.0942 42.1688-20.0213 41.9813-19.9015 41.825-19.7348 41.6688-19.5681 41.5282-19.3572 41.4032-19.102 41.2781-18.8468 41.1531-18.4874 41.0281-18.0238 40.9031-17.5603 40.7208-16.7712 40.4813-15.6566L38.45-6.28138C38.3145-5.64595 38.2078-5.05219 38.1296-4.50009 38.0515-3.948 38.0125-3.50528 38.0125-3.17194 38.0125-2.67193 38.1218-2.28911 38.3406-2.02348 38.5593-1.75785 38.8979-1.62503 39.3562-1.62503 39.7104-1.62503 40.0411-1.72139 40.3484-1.9141 40.6557-2.10682 41.2052-2.61985 41.9969-3.4532L42.9188-2.5938C42.148-1.7292 41.5229-1.12242 41.0438-0.773454 40.5646-0.424488 40.075-0.16667 39.575 0 39.075 0.16667 38.5177 0.250005 37.9031 0.250005 37.1218 0.250005 36.4708-0.0390633 35.9499-0.617201 35.4291-1.19534 35.1686-1.95317 35.1686-2.89069 35.1686-3.23444 35.2077-3.7032 35.2858-4.29697 35.364-4.89073 35.4603-5.43241 35.5749-5.922L36.5124-10.2658 29.0123-10.2658 27.981-5.46886C27.8247-4.73968 27.6268-4.08081 27.3872-3.49226 27.1476-2.90371 26.8456-2.37765 26.481-1.9141 26.1164-1.45055 25.6346-1.03648 25.0356-0.671889 24.4366-0.307298 23.8872-0.0625014 23.3871 0.0625014 22.8871 0.187504 22.3559 0.250005 21.7934 0.250005 21.0017 0.250005 20.2933 0.0286464 19.6683-0.414071 19.0433-0.856789 18.486-1.53128 17.9964-2.43755L20.1215-3.65633C20.559-2.79173 20.9808-2.15369 21.3871-1.74222 21.7934-1.33076 22.2413-1.12502 22.7309-1.12502 22.9809-1.12502 23.2309-1.1745 23.4809-1.27346 23.7309-1.37242 23.9575-1.56774 24.1606-1.85941 24.3637-2.15109 24.5408-2.56255 24.6919-3.09382 24.8429-3.62508 25.0434-4.48447 25.2934-5.67199L27.356-15.6253C27.5122-16.3858 27.7362-17.1149 28.0279-17.8129 28.3195-18.5108 28.6008-19.016 28.8716-19.3285L28.8404-19.4848C27.1112-19.4848 25.8013-19.4067 24.9106-19.2504 24.02-19.0942 23.3793-18.8285 22.9887-18.4535 22.5981-18.0785 22.4028-17.5368 22.4028-16.8285 22.4028-16.2972 22.585-15.6514 22.9496-14.8909L20.5433-13.9534C20.3142-14.3284 20.1501-14.68 20.0511-15.0081 19.9522-15.3363 19.9027-15.6982 19.9027-16.0941 19.9027-16.4587 19.9991-16.8415 20.1918-17.2426 20.3845-17.6436 20.7152-18.0733 21.184-18.5316 21.7257-19.0629 22.4028-19.5733 23.2153-20.0629 23.8715-20.4588 24.4965-20.7426 25.0903-20.9145 25.6841-21.0864 26.3403-21.2036 27.0591-21.2661 27.5383-21.3077 28.2675-21.3286 29.2466-21.3286L31.0279-21.3286 31.4498-20.4067C31.2623-20.0004 31.1009-19.5447 30.9654-19.0395 30.83-18.5342 30.6946-17.9795 30.5592-17.3754L29.4342-12.094 36.9187-12.094 37.7312-15.7972C37.9083-16.5889 38.1218-17.2764 38.3718-17.8598 38.6218-18.4431 38.9265-18.9613 39.2859-19.4145 39.6453-19.8676 40.1245-20.2791 40.7235-20.6489 41.3224-21.0187 41.8745-21.2661 42.3797-21.3911 42.885-21.5161 43.4188-21.5786 43.9813-21.5786ZM10.7971-22.4536C12.5367-22.4536 13.8388-21.8624 14.7034-20.6801 15.568-19.4978 16.0003-17.7087 16.0003-15.3128 16.0003-14.3649 15.917-13.2373 15.7503-11.9299 15.5837-10.6226 15.3024-9.26061 14.9066-7.84392 14.5107-6.42722 14.0524-5.22407 13.5315-4.23446 13.0107-3.24486 12.4326-2.42713 11.7971-1.78129 11.1617-1.13544 10.4299-0.63543 9.60177-0.281256 8.77362 0.0729183 7.83871 0.250005 6.79702 0.250005 5.23449 0.250005 3.99748-0.218755 3.086-1.15627 2.17453-2.09379 1.71879-3.46882 1.71879-5.28136 1.71879-6.91681 2.06254-8.48976 2.75006-10.0002 3.43757-11.5107 4.3803-12.7112 5.57824-13.6018 6.77619-14.4925 8.08871-14.9378 9.51583-14.9378 10.2658-14.9378 10.9221-14.8519 11.4846-14.68 12.0471-14.5081 12.6721-14.1722 13.3597-13.6722L13.3909-14.0628C13.4222-14.5628 13.4378-14.9951 13.4378-15.3597 13.4378-17.3285 13.1774-18.7582 12.6565-19.6489 12.1357-20.5395 11.3232-20.9848 10.219-20.9848 9.45853-20.9848 8.75279-20.8051 8.10173-20.4457 7.45068-20.0864 6.81264-19.5317 6.18763-18.7816L5.06261-18.7816 5.06261-20.0785C6.05221-20.7765 6.82046-21.2739 7.36734-21.5708 7.91423-21.8676 8.46112-22.089 9.008-22.2348 9.55489-22.3807 10.1513-22.4536 10.7971-22.4536Z" fill-rule="evenodd" transform="matrix(1.0002 0 0 1 462.625 652.771)"/><text fill="#000000" fill-opacity="0" font-family="Arial,Arial_MSFontService,sans-serif" font-size="22.7036" x="1.71879" y="-2.58794">𝜕ℋ</text><path d="M9.98459-13.7034C9.01581-13.7034 8.11736-13.3206 7.28922-12.555 6.46107-11.7893 5.78658-10.6408 5.26574-9.10957 4.74489-7.57828 4.48447-6.06263 4.48447-4.5626 4.48447-3.62508 4.58603-2.89329 4.78916-2.36724 4.99229-1.84118 5.26053-1.4792 5.59387-1.28128 5.92721-1.08336 6.34388-0.984396 6.84389-0.984396 7.96892-0.984396 8.92988-1.43493 9.72677-2.33599 10.5237-3.23705 11.2034-4.59124 11.7659-6.39857 12.3284-8.2059 12.6096-9.63041 12.6096-10.6721 12.6096-11.7346 12.3935-12.5055 11.9612-12.9846 11.5289-13.4638 10.87-13.7034 9.98459-13.7034ZM10.7971-22.4536C12.5367-22.4536 13.8388-21.8624 14.7034-20.6801 15.568-19.4978 16.0003-17.7087 16.0003-15.3128 16.0003-14.3649 15.917-13.2373 15.7503-11.9299 15.5837-10.6226 15.3024-9.26061 14.9066-7.84392 14.5107-6.42722 14.0524-5.22407 13.5315-4.23446 13.0107-3.24486 12.4326-2.42713 11.7971-1.78129 11.1617-1.13544 10.4299-0.63543 9.60176-0.281256 8.77362 0.0729183 7.83871 0.250005 6.79702 0.250005 5.23449 0.250005 3.99748-0.218755 3.086-1.15627 2.17453-2.09379 1.71879-3.46882 1.71879-5.28136 1.71879-6.91681 2.06254-8.48976 2.75006-10.0002 3.43757-11.5107 4.3803-12.7112 5.57824-13.6018 6.77618-14.4925 8.08871-14.9378 9.51583-14.9378 10.2658-14.9378 10.9221-14.8519 11.4846-14.68 12.0471-14.5081 12.6721-14.1722 13.3597-13.6722L13.3909-14.0628C13.4222-14.5628 13.4378-14.9951 13.4378-15.3597 13.4378-17.3285 13.1774-18.7582 12.6565-19.6489 12.1357-20.5395 11.3232-20.9848 10.219-20.9848 9.45853-20.9848 8.75279-20.8051 8.10173-20.4457 7.45068-20.0864 6.81264-19.5317 6.18763-18.7816L5.06261-18.7816 5.06261-20.0785C6.05221-20.7765 6.82046-21.2739 7.36734-21.5708 7.91423-21.8676 8.46112-22.089 9.008-22.2348 9.55489-22.3807 10.1513-22.4536 10.7971-22.4536Z" fill-rule="evenodd" transform="matrix(1.0002 0 0 1 464.346 698.398)"/><text fill="#000000" fill-opacity="0" font-family="Arial,Arial_MSFontService,sans-serif" font-size="22.7036" x="1.71879" y="-2.58794">𝜕</text><path d="M9.98459-13.969C8.92206-13.969 7.96892-13.5393 7.12515-12.68 6.28138-11.8206 5.61731-10.6617 5.13292-9.20332 4.64854-7.74495 4.40634-6.2918 4.40634-4.84385 4.40634-3.7605 4.55478-2.95058 4.85166-2.41411 5.14855-1.87764 5.64595-1.60941 6.34388-1.60941 6.66681-1.60941 6.99494-1.67972 7.32828-1.82035 7.66162-1.96098 8.00798-2.18755 8.36736-2.50005 8.72675-2.81256 9.08092-3.19278 9.42989-3.6407 9.77885-4.08863 10.0992-4.53916 10.3908-4.99229 10.6825-5.44543 10.9534-5.9819 11.2034-6.6017 11.4534-7.22151 11.6669-7.96892 11.844-8.84394L11.9846-9.51583C12.1409-10.2658 12.219-10.9742 12.219-11.6409 12.219-12.4534 12.0471-13.0445 11.7034-13.4143 11.3596-13.7841 10.7867-13.969 9.98459-13.969ZM9.70333-15.2034C10.3492-15.2034 10.9638-15.1279 11.5471-14.9769 12.1305-14.8258 12.7346-14.5576 13.3597-14.1722L14.7972-15.2034 15.7972-14.9534 11.7971 2.81256C11.62 3.60424 11.5315 4.19801 11.5315 4.59385 11.5315 5.05219 11.6487 5.37772 11.8831 5.57043 12.1174 5.76314 12.5784 5.89075 13.2659 5.95325L13.1253 6.71889 8.25017 6.71889 10.9377-3.53132 10.719-3.62508C9.82312-2.36463 8.90904-1.40628 7.97673-0.750016 7.04442-0.0937518 6.13555 0.23438 5.25011 0.23438 4.10425 0.23438 3.21621-0.197921 2.58599-1.06252 1.95577-1.92712 1.64066-3.14069 1.64066-4.70322 1.64066-6.49493 1.99223-8.21632 2.69537-9.8674 3.39851-11.5185 4.36468-12.8206 5.59387-13.7737 6.82306-14.7269 8.19288-15.2034 9.70333-15.2034Z" fill-rule="evenodd" transform="matrix(1.0002 0 0 1 483.001 698.398)"/><text fill="#000000" fill-opacity="0" font-family="Arial,Arial_MSFontService,sans-serif" font-size="21.9223" x="1.64066" y="3.9786">𝑞</text><path d="M5.47512-11.532 6.03403-11.532 4.34587-3.93524C4.23941-3.48658 4.16527-3.12918 4.12345-2.86303 4.08162-2.59688 4.06071-2.35734 4.06071-2.14442 4.06071-1.85546 4.11964-1.64634 4.23751-1.51706 4.35538-1.38779 4.53218-1.32315 4.76791-1.32315 4.90479-1.32315 5.04167-1.34977 5.17855-1.403 5.31542-1.45623 5.46181-1.53988 5.6177-1.65394 5.77358-1.76801 5.94468-1.91439 6.13099-2.09309 6.31729-2.27179 6.52451-2.48661 6.75264-2.73756L7.52828-1.98473C7.13286-1.5817 6.77355-1.24141 6.45037-0.963848 6.12719-0.68629 5.82111-0.460062 5.53215-0.285162 5.24318-0.110263 4.95992 0.0152087 4.68236 0.091252 4.40481 0.167295 4.11014 0.205317 3.79836 0.205317 3.5094 0.205317 3.24895 0.152087 3.01702 0.045626 2.78508-0.0608346 2.58547-0.207218 2.41818-0.393524 2.25088-0.57983 2.12161-0.802256 2.03035-1.0608 1.9391-1.31935 1.89348-1.60451 1.89348-1.91629 1.89348-2.16723 1.92389-2.47901 1.98473-2.85162 2.04556-3.22423 2.12351-3.62916 2.21856-4.06641 2.31362-4.50366 2.41818-4.96182 2.53224-5.4409 2.64631-5.91997 2.75847-6.39524 2.86873-6.86671 2.97899-7.33817 3.07785-7.79253 3.1653-8.22978 3.25275-8.66703 3.31549-9.06436 3.35351-9.42176 3.36872-9.4826 3.37632-9.54153 3.37632-9.59856 3.37632-9.65559 3.37632-9.70692 3.37632-9.75255 3.36111-10.0491 3.25655-10.2658 3.06264-10.4027 2.86873-10.5396 2.52464-10.6156 2.03035-10.6308L2.16723-11.4065ZM4.81354-16.1288 7.09484-16.1288 6.53592-13.6764 4.27743-13.6764Z" fill-rule="evenodd" transform="matrix(1.0002 0 0 1 499.548 704.932)"/><text fill="#000000" fill-opacity="0" font-family="Arial,Arial_MSFontService,sans-serif" font-size="16.3341" x="1.89348" y="-1.83644">𝑖</text><path d="M403.919 40.9918 452.91 40.9918 452.91 42.9914 403.919 42.9914Z" fill-rule="evenodd" transform="matrix(1.0002 0 0 1 58.1222 625.99)"/><path d="M2.32817-10.1877 21.5786-10.1877 21.5786-8.10955 2.32817-8.10955Z" fill="#5A5A5A" fill-rule="evenodd" transform="matrix(1.0002 0 0 1 525.685 676.991)"/><text fill="#000000" fill-opacity="0" font-family="Arial,Arial_MSFontService,sans-serif" font-size="2.07817" x="2.32817" y="-8.36932">−</text><path d="M9.98459-13.7034C9.01582-13.7034 8.11736-13.3206 7.28922-12.555 6.46107-11.7893 5.78658-10.6408 5.26574-9.10957 4.74489-7.57828 4.48447-6.06263 4.48447-4.5626 4.48447-3.62508 4.58603-2.89329 4.78916-2.36724 4.99229-1.84118 5.26053-1.4792 5.59387-1.28128 5.92721-1.08336 6.34388-0.984396 6.84389-0.984396 7.96892-0.984396 8.92988-1.43493 9.72677-2.33599 10.5237-3.23705 11.2034-4.59124 11.7659-6.39857 12.3284-8.2059 12.6096-9.63041 12.6096-10.6721 12.6096-11.7346 12.3935-12.5055 11.9612-12.9846 11.5289-13.4638 10.87-13.7034 9.98459-13.7034ZM28.9498-19.9692C28.4914-19.9692 27.9966-19.9535 27.4654-19.9223L23.4184-1.43753C23.7205-1.40628 24.2986-1.39065 25.1528-1.39065 26.8403-1.39065 28.2727-1.68493 29.4498-2.27349 30.6269-2.86204 31.6425-3.78393 32.4967-5.03917 33.3509-6.2944 33.9811-7.61735 34.3874-9.008 34.7936-10.3987 34.9968-11.8648 34.9968-13.4065 34.9968-15.5837 34.4889-17.2217 33.4733-18.3207 32.4577-19.4197 30.9498-19.9692 28.9498-19.9692ZM22.9809-21.3286 28.9029-21.3286C30.4758-21.3286 31.7519-21.2088 32.7311-20.9692 33.7103-20.7296 34.6244-20.2973 35.4733-19.6723 36.3223-19.0473 36.9604-18.2165 37.3874-17.18 37.8145-16.1436 38.0281-14.917 38.0281-13.5003 38.0281-12.094 37.8666-10.7502 37.5437-9.46895 37.2208-8.18767 36.7572-7.00796 36.153-5.92981 35.5489-4.85166 34.8249-3.91414 33.9811-3.11725 33.1374-2.32036 32.3196-1.70837 31.5279-1.28128 30.7363-0.854184 29.8508-0.533865 28.8716-0.320319 27.8925-0.106773 26.7518 0 25.4497 0L18.8871 0 19.0589-0.765641C19.4548-0.828142 19.7517-0.929707 19.9496-1.07034 20.1475-1.21096 20.3142-1.40628 20.4496-1.65628 20.585-1.90629 20.71-2.21098 20.8246-2.57037 20.9392-2.92975 21.1111-3.62508 21.3402-4.65635L23.9965-16.6879C24.2257-17.7295 24.3403-18.5681 24.3403-19.2035 24.3403-19.6931 24.2179-20.0343 23.9731-20.227 23.7283-20.4197 23.3403-20.5317 22.809-20.5629ZM10.7971-22.4536C12.5367-22.4536 13.8388-21.8624 14.7034-20.6801 15.568-19.4978 16.0003-17.7087 16.0003-15.3128 16.0003-14.3649 15.917-13.2373 15.7503-11.9299 15.5837-10.6226 15.3024-9.26061 14.9066-7.84392 14.5107-6.42722 14.0524-5.22407 13.5315-4.23446 13.0107-3.24486 12.4326-2.42713 11.7971-1.78129 11.1617-1.13544 10.4299-0.63543 9.60177-0.281256 8.77362 0.0729183 7.83871 0.250005 6.79702 0.250005 5.23449 0.250005 3.99748-0.218755 3.086-1.15627 2.17453-2.09379 1.71879-3.46882 1.71879-5.28136 1.71879-6.91681 2.06254-8.48976 2.75006-10.0002 3.43757-11.5107 4.3803-12.7112 5.57824-13.6018 6.77618-14.4925 8.08871-14.9378 9.51583-14.9378 10.2658-14.9378 10.9221-14.8519 11.4846-14.68 12.0471-14.5081 12.6721-14.1722 13.3597-13.6722L13.3909-14.0628C13.4222-14.5628 13.4378-14.9951 13.4378-15.3597 13.4378-17.3285 13.1774-18.7582 12.6565-19.6489 12.1357-20.5395 11.3232-20.9848 10.219-20.9848 9.45853-20.9848 8.75279-20.8051 8.10173-20.4457 7.45068-20.0864 6.81264-19.5317 6.18763-18.7816L5.06261-18.7816 5.06261-20.0785C6.05221-20.7765 6.82046-21.2739 7.36734-21.5708 7.91423-21.8676 8.46112-22.089 9.008-22.2348 9.55489-22.3807 10.1513-22.4536 10.7971-22.4536Z" fill="#5A5A5A" fill-rule="evenodd" transform="matrix(1.0002 0 0 1 566.055 652.771)"/><text fill="#000000" fill-opacity="0" font-family="Arial,Arial_MSFontService,sans-serif" font-size="22.7036" x="1.71879" y="-2.58794">𝜕𝐷</text><path d="M9.98459-13.7034C9.01581-13.7034 8.11736-13.3206 7.28922-12.555 6.46107-11.7893 5.78658-10.6408 5.26574-9.10957 4.74489-7.57828 4.48447-6.06263 4.48447-4.5626 4.48447-3.62508 4.58603-2.89329 4.78916-2.36724 4.99229-1.84118 5.26053-1.4792 5.59387-1.28128 5.92721-1.08336 6.34388-0.984396 6.84389-0.984396 7.96892-0.984396 8.92988-1.43493 9.72677-2.33599 10.5237-3.23705 11.2034-4.59124 11.7659-6.39857 12.3284-8.2059 12.6096-9.63041 12.6096-10.6721 12.6096-11.7346 12.3935-12.5055 11.9612-12.9846 11.5289-13.4638 10.87-13.7034 9.98459-13.7034ZM10.7971-22.4536C12.5367-22.4536 13.8388-21.8624 14.7034-20.6801 15.568-19.4978 16.0003-17.7087 16.0003-15.3128 16.0003-14.3649 15.917-13.2373 15.7503-11.9299 15.5837-10.6226 15.3024-9.26061 14.9066-7.84392 14.5107-6.42722 14.0524-5.22407 13.5315-4.23446 13.0107-3.24486 12.4326-2.42713 11.7971-1.78129 11.1617-1.13544 10.4299-0.63543 9.60176-0.281256 8.77362 0.0729183 7.83871 0.250005 6.79702 0.250005 5.23449 0.250005 3.99748-0.218755 3.086-1.15627 2.17453-2.09379 1.71879-3.46882 1.71879-5.28136 1.71879-6.91681 2.06254-8.48976 2.75006-10.0002 3.43757-11.5107 4.3803-12.7112 5.57824-13.6018 6.77618-14.4925 8.08871-14.9378 9.51583-14.9378 10.2658-14.9378 10.9221-14.8519 11.4846-14.68 12.0471-14.5081 12.6721-14.1722 13.3597-13.6722L13.3909-14.0628C13.4222-14.5628 13.4378-14.9951 13.4378-15.3597 13.4378-17.3285 13.1774-18.7582 12.6565-19.6489 12.1357-20.5395 11.3232-20.9848 10.219-20.9848 9.45853-20.9848 8.75279-20.8051 8.10173-20.4457 7.45068-20.0864 6.81264-19.5317 6.18763-18.7816L5.06261-18.7816 5.06261-20.0785C6.05221-20.7765 6.82046-21.2739 7.36734-21.5708 7.91423-21.8676 8.46112-22.089 9.008-22.2348 9.55489-22.3807 10.1513-22.4536 10.7971-22.4536Z" fill="#5A5A5A" fill-rule="evenodd" transform="matrix(1.0002 0 0 1 563.648 698.398)"/><text fill="#000000" fill-opacity="0" font-family="Arial,Arial_MSFontService,sans-serif" font-size="22.7036" x="1.71879" y="-2.58794">𝜕</text><path d="M11.5002-13.3597C10.969-13.3597 10.4455-13.18 9.9299-12.8206 9.41426-12.4612 8.84914-11.8857 8.23455-11.094 7.61995-10.3023 7.14078-9.52103 6.79702-8.75018 6.45326-7.97933 6.18242-7.0939 5.9845-6.09388L5.8595-5.43761C5.75533-4.88552 5.69022-4.46364 5.66418-4.17196 5.63814-3.88029 5.62512-3.59383 5.62512-3.31257 5.62512-2.50005 5.7996-1.90889 6.14857-1.5391 6.49753-1.1693 7.09911-0.984396 7.95329-0.984396 8.48455-0.984396 8.97415-1.08856 9.42207-1.2969 9.87-1.50524 10.2945-1.80733 10.6955-2.20317 11.0966-2.59901 11.4586-3.07819 11.7815-3.6407 12.1044-4.20321 12.3935-4.85687 12.6487-5.60168 12.9039-6.34649 13.0966-7.11213 13.2268-7.8986 13.3571-8.68508 13.4222-9.42207 13.4222-10.1096 13.4222-11.2034 13.2685-12.0185 12.9612-12.555 12.6539-13.0914 12.1669-13.3597 11.5002-13.3597ZM4.92198-15.2034C5.56783-15.2034 6.08086-14.9899 6.46107-14.5628 6.84129-14.1357 7.0314-13.568 7.0314-12.8596 7.0314-12.2763 6.9116-11.6617 6.67202-11.0159L6.85952-10.9534C8.78664-13.7763 10.7034-15.1878 12.6096-15.1878 13.7451-15.1878 14.6279-14.7555 15.2581-13.8909 15.8884-13.0263 16.2035-11.8075 16.2035-10.2346 16.2035-8.5158 15.8571-6.82566 15.1644-5.16417 14.4717-3.50268 13.5107-2.18494 12.2815-1.21096 11.0523-0.236984 9.67729 0.250005 8.15642 0.250005 6.77098 0.250005 5.61991-0.0520843 4.70322-0.656264L3.98446 2.76568C3.82821 3.50528 3.75008 4.11467 3.75008 4.59385 3.75008 5.05219 3.86727 5.37772 4.10165 5.57043 4.33603 5.76314 4.79177 5.89075 5.46886 5.95325L5.34386 6.71889 0.515636 6.71889 4.28134-9.85958C4.50009-10.8179 4.60947-11.6044 4.60947-12.219 4.60947-12.6357 4.54176-12.9378 4.40634-13.1253 4.27092-13.3128 4.05738-13.4065 3.7657-13.4065 3.44278-13.4065 3.10163-13.2737 2.74225-13.0081 2.38286-12.7425 1.89067-12.2607 1.26565-11.5627L0.375008-12.4378C1.31253-13.417 2.10682-14.1227 2.75787-14.555 3.40893-14.9873 4.1303-15.2034 4.92198-15.2034Z" fill="#5A5A5A" fill-rule="evenodd" transform="matrix(1.0002 0 0 1 582.302 698.398)"/><text fill="#000000" fill-opacity="0" font-family="Arial,Arial_MSFontService,sans-serif" font-size="21.9223" x="0.375008" y="3.9786">𝑝</text><path d="M5.47512-11.532 6.03403-11.532 4.34587-3.93524C4.23941-3.48658 4.16527-3.12918 4.12345-2.86303 4.08162-2.59688 4.06071-2.35734 4.06071-2.14442 4.06071-1.85546 4.11964-1.64634 4.23751-1.51706 4.35538-1.38779 4.53218-1.32315 4.76791-1.32315 4.90479-1.32315 5.04167-1.34977 5.17855-1.403 5.31542-1.45623 5.46181-1.53988 5.6177-1.65394 5.77358-1.76801 5.94468-1.91439 6.13099-2.09309 6.31729-2.27179 6.52451-2.48661 6.75264-2.73756L7.52828-1.98473C7.13286-1.5817 6.77355-1.24141 6.45037-0.963848 6.12719-0.68629 5.82111-0.460062 5.53215-0.285162 5.24318-0.110263 4.95992 0.0152087 4.68236 0.091252 4.40481 0.167295 4.11014 0.205317 3.79836 0.205317 3.5094 0.205317 3.24895 0.152087 3.01702 0.045626 2.78508-0.0608346 2.58547-0.207218 2.41818-0.393524 2.25088-0.57983 2.12161-0.802256 2.03035-1.0608 1.9391-1.31935 1.89348-1.60451 1.89348-1.91629 1.89348-2.16723 1.92389-2.47901 1.98473-2.85162 2.04556-3.22423 2.12351-3.62916 2.21856-4.06641 2.31362-4.50366 2.41818-4.96182 2.53224-5.4409 2.64631-5.91997 2.75847-6.39524 2.86873-6.86671 2.97899-7.33817 3.07785-7.79253 3.1653-8.22978 3.25275-8.66703 3.31549-9.06436 3.35351-9.42176 3.36872-9.4826 3.37632-9.54153 3.37632-9.59856 3.37632-9.65559 3.37632-9.70692 3.37632-9.75255 3.36111-10.0491 3.25655-10.2658 3.06264-10.4027 2.86873-10.5396 2.52464-10.6156 2.03035-10.6308L2.16723-11.4065ZM4.81354-16.1288 7.09484-16.1288 6.53592-13.6764 4.27743-13.6764Z" fill="#5A5A5A" fill-rule="evenodd" transform="matrix(1.0002 0 0 1 599.129 704.932)"/><text fill="#000000" fill-opacity="0" font-family="Arial,Arial_MSFontService,sans-serif" font-size="16.3341" x="1.89348" y="-1.83644">𝑖</text><path d="M504.899 40.9918 550.89 40.9918 550.89 42.9914 504.899 42.9914Z" fill="#5A5A5A" fill-rule="evenodd" transform="matrix(1.0002 0 0 1 58.1222 625.99)"/><path d="M417 400.42C417 385.788 428.865 373.925 443.5 373.925 458.136 373.925 470 385.788 470 400.42 470 415.053 458.136 426.915 443.5 426.915 428.865 426.915 417 415.053 417 400.42Z" stroke="#5A5A5A" stroke-width="2.00084" stroke-miterlimit="8" stroke-dasharray="8.00336 6.00252" fill="none" fill-rule="evenodd"/><path d="M333.5 331.434 444.312 374" stroke="#5A5A5A" stroke-width="5.0021" stroke-miterlimit="8" stroke-dasharray="20.0084 15.0063" fill="none" fill-rule="evenodd"/><path d="M256.5 331.434 443.582 374" stroke="#5A5A5A" stroke-width="5.0021" stroke-miterlimit="8" stroke-dasharray="20.0084 15.0063" fill="none" fill-rule="evenodd"/><path d="M0 0 38.4298 42.5659" stroke="#5A5A5A" stroke-width="5.0011" stroke-miterlimit="8" stroke-dasharray="20.0044 15.0033" fill="none" fill-rule="evenodd" transform="matrix(-1.0002 0 0 1 481.937 331.434)"/><path d="M0 0 109.554 42.5659" stroke="#5A5A5A" stroke-width="5.0011" stroke-miterlimit="8" stroke-dasharray="20.0044 15.0033" fill="none" fill-rule="evenodd" transform="matrix(-1.0002 0 0 1 553.076 331.434)"/><path d="M408.5 331.434 443.937 374" stroke="#5A5A5A" stroke-width="5.0021" stroke-miterlimit="8" stroke-dasharray="20.0084 15.0063" fill="none" fill-rule="evenodd"/><path d="M447.001 427.415 447.001 447.419 441.999 447.419 441.999 427.415ZM447.001 462.422 447.001 482.427 441.999 482.427 441.999 462.422ZM447.001 497.43 447.001 517.435 441.999 517.435 441.999 497.43ZM447.001 532.438 447.001 552.442 441.999 552.442 441.999 532.438ZM447.001 567.446 447.001 587.45 441.999 587.45 441.999 567.446ZM447.001 602.453 447.001 609.671 441.999 609.671 441.999 602.453ZM452.003 607.17 444.5 622.173 436.997 607.17Z" fill="#5A5A5A"/><path d="M9.98459-13.7034C9.01582-13.7034 8.11736-13.3206 7.28922-12.555 6.46107-11.7893 5.78658-10.6408 5.26574-9.10957 4.74489-7.57828 4.48447-6.06263 4.48447-4.5626 4.48447-3.62508 4.58603-2.89329 4.78916-2.36724 4.99229-1.84118 5.26053-1.4792 5.59387-1.28128 5.92721-1.08336 6.34388-0.984396 6.84389-0.984396 7.96892-0.984396 8.92988-1.43493 9.72677-2.33599 10.5237-3.23705 11.2034-4.59124 11.7659-6.39857 12.3284-8.2059 12.6096-9.63041 12.6096-10.6721 12.6096-11.7346 12.3935-12.5055 11.9612-12.9846 11.5289-13.4638 10.87-13.7034 9.98459-13.7034ZM28.9498-19.9692C28.4914-19.9692 27.9966-19.9535 27.4654-19.9223L23.4184-1.43753C23.7205-1.40628 24.2986-1.39065 25.1528-1.39065 26.8403-1.39065 28.2727-1.68493 29.4498-2.27349 30.6269-2.86204 31.6425-3.78393 32.4967-5.03917 33.3509-6.2944 33.9811-7.61735 34.3874-9.008 34.7936-10.3987 34.9968-11.8648 34.9968-13.4065 34.9968-15.5837 34.4889-17.2217 33.4733-18.3207 32.4577-19.4197 30.9498-19.9692 28.9498-19.9692ZM22.9809-21.3286 28.9029-21.3286C30.4758-21.3286 31.7519-21.2088 32.7311-20.9692 33.7103-20.7296 34.6244-20.2973 35.4733-19.6723 36.3223-19.0473 36.9604-18.2165 37.3874-17.18 37.8145-16.1436 38.0281-14.917 38.0281-13.5003 38.0281-12.094 37.8666-10.7502 37.5437-9.46895 37.2208-8.18767 36.7572-7.00796 36.153-5.92981 35.5489-4.85166 34.8249-3.91414 33.9811-3.11725 33.1374-2.32036 32.3196-1.70837 31.5279-1.28128 30.7363-0.854184 29.8508-0.533865 28.8716-0.320319 27.8925-0.106773 26.7518 0 25.4497 0L18.8871 0 19.0589-0.765641C19.4548-0.828142 19.7517-0.929707 19.9496-1.07034 20.1475-1.21096 20.3142-1.40628 20.4496-1.65628 20.585-1.90629 20.71-2.21098 20.8246-2.57037 20.9392-2.92975 21.1111-3.62508 21.3402-4.65635L23.9965-16.6879C24.2257-17.7295 24.3403-18.5681 24.3403-19.2035 24.3403-19.6931 24.2179-20.0343 23.9731-20.227 23.7283-20.4197 23.3403-20.5317 22.809-20.5629ZM10.7971-22.4536C12.5367-22.4536 13.8388-21.8624 14.7034-20.6801 15.568-19.4978 16.0003-17.7087 16.0003-15.3128 16.0003-14.3649 15.917-13.2373 15.7503-11.9299 15.5837-10.6226 15.3024-9.26061 14.9066-7.84392 14.5107-6.42722 14.0524-5.22407 13.5315-4.23446 13.0107-3.24486 12.4326-2.42713 11.7971-1.78129 11.1617-1.13544 10.4299-0.63543 9.60177-0.281256 8.77362 0.0729183 7.83871 0.250005 6.79702 0.250005 5.23449 0.250005 3.99748-0.218755 3.086-1.15627 2.17453-2.09379 1.71879-3.46882 1.71879-5.28136 1.71879-6.91681 2.06254-8.48976 2.75006-10.0002 3.43757-11.5107 4.3803-12.7112 5.57824-13.6018 6.77618-14.4925 8.08871-14.9378 9.51583-14.9378 10.2658-14.9378 10.9221-14.8519 11.4846-14.68 12.0471-14.5081 12.6721-14.1722 13.3597-13.6722L13.3909-14.0628C13.4222-14.5628 13.4378-14.9951 13.4378-15.3597 13.4378-17.3285 13.1774-18.7582 12.6565-19.6489 12.1357-20.5395 11.3232-20.9848 10.219-20.9848 9.45853-20.9848 8.75279-20.8051 8.10173-20.4457 7.45068-20.0864 6.81264-19.5317 6.18763-18.7816L5.06261-18.7816 5.06261-20.0785C6.05221-20.7765 6.82046-21.2739 7.36734-21.5708 7.91423-21.8676 8.46112-22.089 9.008-22.2348 9.55489-22.3807 10.1513-22.4536 10.7971-22.4536Z" fill="#5A5A5A" fill-rule="evenodd" transform="matrix(1.0002 0 0 1 465.107 507.953)"/><text fill="#000000" fill-opacity="0" font-family="Arial,Arial_MSFontService,sans-serif" font-size="22.7036" x="1.71879" y="-2.58794">𝜕𝐷</text><path d="M9.98459-13.7034C9.01581-13.7034 8.11736-13.3206 7.28922-12.555 6.46107-11.7893 5.78658-10.6408 5.26574-9.10957 4.74489-7.57828 4.48447-6.06263 4.48447-4.5626 4.48447-3.62508 4.58603-2.89329 4.78916-2.36724 4.99229-1.84118 5.26053-1.4792 5.59387-1.28128 5.92721-1.08336 6.34388-0.984396 6.84389-0.984396 7.96892-0.984396 8.92988-1.43493 9.72677-2.33599 10.5237-3.23705 11.2034-4.59124 11.7659-6.39857 12.3284-8.2059 12.6096-9.63041 12.6096-10.6721 12.6096-11.7346 12.3935-12.5055 11.9612-12.9846 11.5289-13.4638 10.87-13.7034 9.98459-13.7034ZM10.7971-22.4536C12.5367-22.4536 13.8388-21.8624 14.7034-20.6801 15.568-19.4978 16.0003-17.7087 16.0003-15.3128 16.0003-14.3649 15.917-13.2373 15.7503-11.9299 15.5837-10.6226 15.3024-9.26061 14.9066-7.84392 14.5107-6.42722 14.0524-5.22407 13.5315-4.23446 13.0107-3.24486 12.4326-2.42713 11.7971-1.78129 11.1617-1.13544 10.4299-0.63543 9.60176-0.281256 8.77362 0.0729183 7.83871 0.250005 6.79702 0.250005 5.23449 0.250005 3.99748-0.218755 3.086-1.15627 2.17453-2.09379 1.71879-3.46882 1.71879-5.28136 1.71879-6.91681 2.06254-8.48976 2.75006-10.0002 3.43757-11.5107 4.3803-12.7112 5.57824-13.6018 6.77618-14.4925 8.08871-14.9378 9.51583-14.9378 10.2658-14.9378 10.9221-14.8519 11.4846-14.68 12.0471-14.5081 12.6721-14.1722 13.3597-13.6722L13.3909-14.0628C13.4222-14.5628 13.4378-14.9951 13.4378-15.3597 13.4378-17.3285 13.1774-18.7582 12.6565-19.6489 12.1357-20.5395 11.3232-20.9848 10.219-20.9848 9.45853-20.9848 8.75279-20.8051 8.10173-20.4457 7.45068-20.0864 6.81264-19.5317 6.18763-18.7816L5.06261-18.7816 5.06261-20.0785C6.05221-20.7765 6.82046-21.2739 7.36734-21.5708 7.91423-21.8676 8.46112-22.089 9.008-22.2348 9.55489-22.3807 10.1513-22.4536 10.7971-22.4536Z" fill="#5A5A5A" fill-rule="evenodd" transform="matrix(1.0002 0 0 1 462.7 553.581)"/><text fill="#000000" fill-opacity="0" font-family="Arial,Arial_MSFontService,sans-serif" font-size="22.7036" x="1.71879" y="-2.58794">𝜕</text><path d="M11.5002-13.3597C10.969-13.3597 10.4455-13.18 9.9299-12.8206 9.41426-12.4612 8.84914-11.8857 8.23455-11.094 7.61995-10.3023 7.14078-9.52103 6.79702-8.75018 6.45326-7.97933 6.18242-7.0939 5.9845-6.09388L5.8595-5.43761C5.75533-4.88552 5.69022-4.46364 5.66418-4.17196 5.63814-3.88029 5.62512-3.59383 5.62512-3.31257 5.62512-2.50005 5.7996-1.90889 6.14857-1.5391 6.49753-1.1693 7.09911-0.984396 7.95329-0.984396 8.48455-0.984396 8.97415-1.08856 9.42207-1.2969 9.87-1.50524 10.2945-1.80733 10.6955-2.20317 11.0966-2.59901 11.4586-3.07819 11.7815-3.6407 12.1044-4.20321 12.3935-4.85687 12.6487-5.60168 12.9039-6.34649 13.0966-7.11213 13.2268-7.8986 13.3571-8.68508 13.4222-9.42207 13.4222-10.1096 13.4222-11.2034 13.2685-12.0185 12.9612-12.555 12.6539-13.0914 12.1669-13.3597 11.5002-13.3597ZM4.92198-15.2034C5.56783-15.2034 6.08086-14.9899 6.46107-14.5628 6.84129-14.1357 7.0314-13.568 7.0314-12.8596 7.0314-12.2763 6.9116-11.6617 6.67202-11.0159L6.85952-10.9534C8.78664-13.7763 10.7034-15.1878 12.6096-15.1878 13.7451-15.1878 14.6279-14.7555 15.2581-13.8909 15.8884-13.0263 16.2035-11.8075 16.2035-10.2346 16.2035-8.5158 15.8571-6.82566 15.1644-5.16417 14.4717-3.50268 13.5107-2.18494 12.2815-1.21096 11.0523-0.236984 9.67729 0.250005 8.15642 0.250005 6.77098 0.250005 5.61991-0.0520843 4.70322-0.656264L3.98446 2.76568C3.82821 3.50528 3.75008 4.11467 3.75008 4.59385 3.75008 5.05219 3.86727 5.37772 4.10165 5.57043 4.33603 5.76314 4.79177 5.89075 5.46886 5.95325L5.34386 6.71889 0.515636 6.71889 4.28134-9.85958C4.50009-10.8179 4.60947-11.6044 4.60947-12.219 4.60947-12.6357 4.54176-12.9378 4.40634-13.1253 4.27092-13.3128 4.05738-13.4065 3.7657-13.4065 3.44278-13.4065 3.10163-13.2737 2.74225-13.0081 2.38286-12.7425 1.89067-12.2607 1.26565-11.5627L0.375008-12.4378C1.31253-13.417 2.10682-14.1227 2.75787-14.555 3.40893-14.9873 4.1303-15.2034 4.92198-15.2034Z" fill="#5A5A5A" fill-rule="evenodd" transform="matrix(1.0002 0 0 1 481.354 553.581)"/><text fill="#000000" fill-opacity="0" font-family="Arial,Arial_MSFontService,sans-serif" font-size="21.9223" x="0.375008" y="3.9786">𝑝</text><path d="M5.47512-11.532 6.03403-11.532 4.34587-3.93524C4.23941-3.48658 4.16527-3.12918 4.12345-2.86303 4.08162-2.59688 4.06071-2.35734 4.06071-2.14442 4.06071-1.85546 4.11964-1.64634 4.23751-1.51706 4.35538-1.38779 4.53218-1.32315 4.76791-1.32315 4.90479-1.32315 5.04167-1.34977 5.17855-1.403 5.31542-1.45623 5.46181-1.53988 5.6177-1.65394 5.77358-1.76801 5.94468-1.91439 6.13099-2.09309 6.31729-2.27179 6.52451-2.48661 6.75264-2.73756L7.52828-1.98473C7.13286-1.5817 6.77355-1.24141 6.45037-0.963848 6.12719-0.68629 5.82111-0.460062 5.53215-0.285162 5.24318-0.110263 4.95992 0.0152087 4.68236 0.091252 4.40481 0.167295 4.11014 0.205317 3.79836 0.205317 3.5094 0.205317 3.24895 0.152087 3.01702 0.045626 2.78508-0.0608346 2.58547-0.207218 2.41818-0.393524 2.25088-0.57983 2.12161-0.802256 2.03035-1.0608 1.9391-1.31935 1.89348-1.60451 1.89348-1.91629 1.89348-2.16723 1.92389-2.47901 1.98473-2.85162 2.04556-3.22423 2.12351-3.62916 2.21856-4.06641 2.31362-4.50366 2.41818-4.96182 2.53224-5.4409 2.64631-5.91997 2.75847-6.39524 2.86873-6.86671 2.97899-7.33817 3.07785-7.79253 3.1653-8.22978 3.25275-8.66703 3.31549-9.06436 3.35351-9.42176 3.36872-9.4826 3.37632-9.54153 3.37632-9.59856 3.37632-9.65559 3.37632-9.70692 3.37632-9.75255 3.36111-10.0491 3.25655-10.2658 3.06264-10.4027 2.86873-10.5396 2.52464-10.6156 2.03035-10.6308L2.16723-11.4065ZM4.81354-16.1288 7.09484-16.1288 6.53592-13.6764 4.27743-13.6764Z" fill="#5A5A5A" fill-rule="evenodd" transform="matrix(1.0002 0 0 1 498.181 560.114)"/><text fill="#000000" fill-opacity="0" font-family="Arial,Arial_MSFontService,sans-serif" font-size="16.3341" x="1.89348" y="-1.83644">𝑖</text><path d="M23.9952 40.9918 46.9906 40.9918 69.986 40.9918 69.986 42.9914 46.9906 42.9914 23.9952 42.9914Z" fill="#5A5A5A" fill-rule="evenodd" transform="matrix(1.0002 0 0 1 438.569 481.172)"/><text fill="#5A5A5A" font-family="Cambria Math,Cambria Math_MSFontService,sans-serif" font-weight="400" font-size="26.6725" transform="matrix(1 0 0 0.999801 483.178 411)">𝐷</text><text fill="#5A5A5A" font-family="Aptos Display,Aptos Display_MSFontService,sans-serif" font-style="italic" font-weight="400" font-size="26.6725" transform="matrix(1 0 0 0.999801 155.426 748)">dashed = optional learnable dissipative head</text></g></svg>