<?xml version="1.0" encoding="UTF-8"?>
<svg xmlns="http://www.w3.org/2000/svg" xmlns:xlink="http://www.w3.org/1999/xlink" width="283.56pt" height="286.2pt" viewBox="0 0 283.56 286.2">
<defs>
<g>
<g id="glyph-0-0">
<path d="M 4.6875 -4.4375 C 4.582031 -4.957031 4.476562 -5.453125 4.375 -5.921875 C 4.269531 -6.398438 4.160156 -6.847656 4.046875 -7.265625 C 3.941406 -7.679688 3.851562 -7.953125 3.78125 -8.078125 C 3.707031 -8.203125 3.628906 -8.289062 3.546875 -8.34375 C 3.460938 -8.394531 3.359375 -8.421875 3.234375 -8.421875 C 3.097656 -8.421875 2.972656 -8.390625 2.859375 -8.328125 C 2.753906 -8.265625 2.632812 -8.15625 2.5 -8 C 2.375 -7.84375 2.203125 -7.601562 1.984375 -7.28125 L 1.34375 -7.703125 C 1.757812 -8.316406 2.15625 -8.773438 2.53125 -9.078125 C 2.914062 -9.390625 3.363281 -9.546875 3.875 -9.546875 C 4.082031 -9.546875 4.257812 -9.523438 4.40625 -9.484375 C 4.5625 -9.441406 4.695312 -9.367188 4.8125 -9.265625 C 4.9375 -9.171875 5.039062 -9.050781 5.125 -8.90625 C 5.21875 -8.757812 5.304688 -8.554688 5.390625 -8.296875 C 5.484375 -8.035156 5.566406 -7.710938 5.640625 -7.328125 C 5.710938 -6.941406 5.78125 -6.546875 5.84375 -6.140625 L 5.9375 -6.140625 C 6.570312 -7.023438 7.050781 -7.671875 7.375 -8.078125 C 7.695312 -8.484375 7.96875 -8.785156 8.1875 -8.984375 C 8.40625 -9.179688 8.617188 -9.320312 8.828125 -9.40625 C 9.035156 -9.488281 9.3125 -9.53125 9.65625 -9.53125 C 9.957031 -9.53125 10.207031 -9.492188 10.40625 -9.421875 L 10.015625 -7.640625 L 9.328125 -7.640625 C 9.285156 -7.910156 9.171875 -8.046875 8.984375 -8.046875 C 8.921875 -8.046875 8.859375 -8.035156 8.796875 -8.015625 C 8.734375 -8.003906 8.65625 -7.960938 8.5625 -7.890625 C 8.46875 -7.828125 8.328125 -7.703125 8.140625 -7.515625 C 7.953125 -7.328125 7.742188 -7.09375 7.515625 -6.8125 C 7.285156 -6.539062 7.050781 -6.253906 6.8125 -5.953125 L 6.140625 -5.109375 C 6.265625 -4.484375 6.378906 -3.941406 6.484375 -3.484375 C 6.585938 -3.023438 6.679688 -2.644531 6.765625 -2.34375 C 6.847656 -2.039062 6.914062 -1.800781 6.96875 -1.625 C 7.03125 -1.445312 7.097656 -1.3125 7.171875 -1.21875 C 7.242188 -1.132812 7.316406 -1.070312 7.390625 -1.03125 C 7.472656 -1 7.5625 -0.984375 7.65625 -0.984375 C 7.832031 -0.984375 8.003906 -1.050781 8.171875 -1.1875 C 8.335938 -1.320312 8.578125 -1.632812 8.890625 -2.125 L 9.53125 -1.703125 C 9.070312 -1.015625 8.65625 -0.53125 8.28125 -0.25 C 7.914062 0.0195312 7.476562 0.15625 6.96875 0.15625 C 6.6875 0.15625 6.445312 0.101562 6.25 0 C 6.050781 -0.09375 5.878906 -0.25 5.734375 -0.46875 C 5.597656 -0.695312 5.472656 -1.046875 5.359375 -1.515625 C 5.160156 -2.359375 5.035156 -3.003906 4.984375 -3.453125 L 4.890625 -3.453125 C 4.191406 -2.472656 3.675781 -1.769531 3.34375 -1.34375 C 3.007812 -0.914062 2.734375 -0.597656 2.515625 -0.390625 C 2.296875 -0.191406 2.082031 -0.0546875 1.875 0.015625 C 1.664062 0.0976562 1.390625 0.140625 1.046875 0.140625 C 0.742188 0.140625 0.492188 0.101562 0.296875 0.03125 L 0.6875 -1.75 L 1.375 -1.75 C 1.414062 -1.46875 1.53125 -1.328125 1.71875 -1.328125 C 1.8125 -1.328125 1.90625 -1.351562 2 -1.40625 C 2.101562 -1.457031 2.25 -1.578125 2.4375 -1.765625 C 2.632812 -1.953125 2.898438 -2.242188 3.234375 -2.640625 C 3.566406 -3.035156 4.050781 -3.632812 4.6875 -4.4375 Z M 4.6875 -4.4375 "/>
</g>
<g id="glyph-0-1">
<path d="M 6.828125 -1.859375 C 6.253906 -1.171875 5.703125 -0.660156 5.171875 -0.328125 C 4.648438 -0.00390625 4.101562 0.15625 3.53125 0.15625 C 2.15625 0.15625 1.46875 -0.535156 1.46875 -1.921875 C 1.46875 -2.359375 1.523438 -2.816406 1.640625 -3.296875 L 2.796875 -8.390625 L 1.15625 -8.390625 L 1.296875 -9.078125 C 1.679688 -9.078125 1.972656 -9.101562 2.171875 -9.15625 C 2.367188 -9.207031 2.535156 -9.28125 2.671875 -9.375 C 2.804688 -9.46875 2.925781 -9.597656 3.03125 -9.765625 C 3.144531 -9.941406 3.253906 -10.160156 3.359375 -10.421875 C 3.472656 -10.691406 3.632812 -11.15625 3.84375 -11.8125 L 5.1875 -11.8125 L 4.65625 -9.390625 L 7.640625 -9.390625 L 7.421875 -8.390625 L 4.4375 -8.390625 L 3.5625 -4.578125 C 3.394531 -3.835938 3.285156 -3.304688 3.234375 -2.984375 C 3.191406 -2.660156 3.171875 -2.398438 3.171875 -2.203125 C 3.171875 -1.390625 3.507812 -0.984375 4.1875 -0.984375 C 4.46875 -0.984375 4.769531 -1.09375 5.09375 -1.3125 C 5.425781 -1.539062 5.8125 -1.914062 6.25 -2.4375 Z M 6.828125 -1.859375 "/>
</g>
<g id="glyph-1-0">
<path d="M 4.5625 -10.359375 L 4.203125 -8.78125 L 2.75 -8.78125 L 3.09375 -10.359375 Z M 2.796875 -2.53125 C 2.722656 -2.238281 2.671875 -2.003906 2.640625 -1.828125 C 2.617188 -1.660156 2.609375 -1.507812 2.609375 -1.375 C 2.609375 -1.1875 2.644531 -1.050781 2.71875 -0.96875 C 2.789062 -0.882812 2.90625 -0.84375 3.0625 -0.84375 C 3.144531 -0.84375 3.226562 -0.859375 3.3125 -0.890625 C 3.40625 -0.929688 3.5 -0.988281 3.59375 -1.0625 C 3.695312 -1.132812 3.804688 -1.226562 3.921875 -1.34375 C 4.046875 -1.457031 4.1875 -1.597656 4.34375 -1.765625 L 4.828125 -1.28125 C 4.578125 -1.019531 4.347656 -0.800781 4.140625 -0.625 C 3.929688 -0.445312 3.734375 -0.300781 3.546875 -0.1875 C 3.367188 -0.0703125 3.1875 0.00390625 3 0.046875 C 2.820312 0.0976562 2.632812 0.125 2.4375 0.125 C 2.25 0.125 2.082031 0.0859375 1.9375 0.015625 C 1.789062 -0.046875 1.660156 -0.132812 1.546875 -0.25 C 1.441406 -0.375 1.359375 -0.519531 1.296875 -0.6875 C 1.242188 -0.851562 1.21875 -1.035156 1.21875 -1.234375 C 1.21875 -1.390625 1.234375 -1.585938 1.265625 -1.828125 C 1.304688 -2.066406 1.359375 -2.328125 1.421875 -2.609375 C 1.484375 -2.890625 1.550781 -3.179688 1.625 -3.484375 C 1.695312 -3.796875 1.769531 -4.101562 1.84375 -4.40625 C 1.914062 -4.707031 1.976562 -5 2.03125 -5.28125 C 2.082031 -5.5625 2.125 -5.816406 2.15625 -6.046875 C 2.164062 -6.085938 2.171875 -6.125 2.171875 -6.15625 C 2.171875 -6.195312 2.171875 -6.234375 2.171875 -6.265625 C 2.160156 -6.453125 2.09375 -6.585938 1.96875 -6.671875 C 1.84375 -6.765625 1.617188 -6.816406 1.296875 -6.828125 L 1.390625 -7.328125 L 3.515625 -7.40625 L 3.875 -7.40625 Z M 2.796875 -2.53125 "/>
</g>
<g id="glyph-2-0">
<path d="M 8.859375 -3.171875 C 8.710938 -2.546875 8.640625 -2.0625 8.640625 -1.71875 C 8.640625 -1.457031 8.679688 -1.265625 8.765625 -1.140625 C 8.859375 -1.023438 8.992188 -0.96875 9.171875 -0.96875 C 9.367188 -0.96875 9.578125 -1.046875 9.796875 -1.203125 C 10.023438 -1.367188 10.34375 -1.675781 10.75 -2.125 L 11.3125 -1.578125 C 10.71875 -0.941406 10.207031 -0.492188 9.78125 -0.234375 C 9.363281 0.0234375 8.921875 0.15625 8.453125 0.15625 C 8.046875 0.15625 7.71875 0.0195312 7.46875 -0.25 C 7.226562 -0.519531 7.109375 -0.875 7.109375 -1.3125 C 7.109375 -1.664062 7.1875 -2.050781 7.34375 -2.46875 L 7.234375 -2.515625 C 6.585938 -1.609375 5.972656 -0.9375 5.390625 -0.5 C 4.804688 -0.0703125 4.210938 0.140625 3.609375 0.140625 C 2.992188 0.140625 2.519531 -0.03125 2.1875 -0.375 C 1.863281 -0.726562 1.703125 -1.21875 1.703125 -1.84375 C 1.703125 -2.25 1.800781 -2.832031 2 -3.59375 L 2.640625 -6.171875 C 2.816406 -6.890625 2.90625 -7.394531 2.90625 -7.6875 C 2.90625 -7.945312 2.859375 -8.132812 2.765625 -8.25 C 2.679688 -8.375 2.550781 -8.4375 2.375 -8.4375 C 2.164062 -8.4375 1.945312 -8.351562 1.71875 -8.1875 C 1.5 -8.019531 1.191406 -7.710938 0.796875 -7.265625 L 0.234375 -7.828125 C 0.796875 -8.390625 1.21875 -8.773438 1.5 -8.984375 C 1.78125 -9.191406 2.046875 -9.335938 2.296875 -9.421875 C 2.554688 -9.515625 2.847656 -9.5625 3.171875 -9.5625 C 3.585938 -9.5625 3.914062 -9.421875 4.15625 -9.140625 C 4.40625 -8.859375 4.53125 -8.476562 4.53125 -8 C 4.53125 -7.476562 4.425781 -6.832031 4.21875 -6.0625 L 3.796875 -4.359375 C 3.679688 -3.929688 3.597656 -3.59375 3.546875 -3.34375 C 3.503906 -3.101562 3.46875 -2.894531 3.4375 -2.71875 C 3.414062 -2.539062 3.40625 -2.394531 3.40625 -2.28125 C 3.40625 -1.832031 3.476562 -1.503906 3.625 -1.296875 C 3.78125 -1.097656 4.03125 -1 4.375 -1 C 4.644531 -1 4.9375 -1.109375 5.25 -1.328125 C 5.570312 -1.546875 5.910156 -1.875 6.265625 -2.3125 C 6.628906 -2.757812 6.914062 -3.191406 7.125 -3.609375 C 7.34375 -4.023438 7.523438 -4.539062 7.671875 -5.15625 L 8.59375 -9.40625 L 10.296875 -9.40625 Z M 8.859375 -3.171875 "/>
</g>
<g id="glyph-2-1">
<path d="M 3.46875 -4.96875 C 3.46875 -2.675781 3.835938 -0.789062 4.578125 0.6875 C 5.316406 2.175781 6.441406 3.175781 7.953125 3.6875 L 7.71875 4.4375 C 5.789062 3.9375 4.316406 2.851562 3.296875 1.1875 C 2.273438 -0.476562 1.765625 -2.5 1.765625 -4.875 C 1.765625 -7.238281 2.273438 -9.253906 3.296875 -10.921875 C 4.328125 -12.597656 5.800781 -13.691406 7.71875 -14.203125 L 7.984375 -13.4375 C 6.453125 -12.9375 5.316406 -11.953125 4.578125 -10.484375 C 3.835938 -9.023438 3.46875 -7.1875 3.46875 -4.96875 Z M 3.46875 -4.96875 "/>
</g>
<g id="glyph-2-2">
<path d="M 4.6875 -4.4375 C 4.59375 -4.957031 4.488281 -5.457031 4.375 -5.9375 C 4.269531 -6.414062 4.160156 -6.859375 4.046875 -7.265625 C 3.941406 -7.679688 3.851562 -7.953125 3.78125 -8.078125 C 3.707031 -8.210938 3.628906 -8.300781 3.546875 -8.34375 C 3.460938 -8.394531 3.363281 -8.421875 3.25 -8.421875 C 3.101562 -8.421875 2.972656 -8.390625 2.859375 -8.328125 C 2.753906 -8.265625 2.632812 -8.15625 2.5 -8 C 2.375 -7.84375 2.203125 -7.601562 1.984375 -7.28125 L 1.34375 -7.703125 C 1.757812 -8.328125 2.15625 -8.789062 2.53125 -9.09375 C 2.914062 -9.40625 3.363281 -9.5625 3.875 -9.5625 C 4.082031 -9.5625 4.257812 -9.535156 4.40625 -9.484375 C 4.5625 -9.441406 4.695312 -9.375 4.8125 -9.28125 C 4.9375 -9.1875 5.046875 -9.0625 5.140625 -8.90625 C 5.234375 -8.757812 5.320312 -8.554688 5.40625 -8.296875 C 5.488281 -8.035156 5.566406 -7.710938 5.640625 -7.328125 C 5.722656 -6.953125 5.789062 -6.554688 5.84375 -6.140625 L 5.9375 -6.140625 C 6.570312 -7.023438 7.050781 -7.671875 7.375 -8.078125 C 7.695312 -8.492188 7.96875 -8.800781 8.1875 -9 C 8.414062 -9.195312 8.632812 -9.335938 8.84375 -9.421875 C 9.050781 -9.503906 9.320312 -9.546875 9.65625 -9.546875 C 9.96875 -9.546875 10.222656 -9.503906 10.421875 -9.421875 L 10.015625 -7.640625 L 9.328125 -7.640625 C 9.296875 -7.921875 9.179688 -8.0625 8.984375 -8.0625 C 8.929688 -8.0625 8.867188 -8.050781 8.796875 -8.03125 C 8.734375 -8.007812 8.65625 -7.960938 8.5625 -7.890625 C 8.46875 -7.828125 8.328125 -7.703125 8.140625 -7.515625 C 7.960938 -7.328125 7.757812 -7.09375 7.53125 -6.8125 C 7.300781 -6.539062 7.0625 -6.253906 6.8125 -5.953125 L 6.15625 -5.125 C 6.269531 -4.488281 6.378906 -3.941406 6.484375 -3.484375 C 6.585938 -3.023438 6.679688 -2.644531 6.765625 -2.34375 C 6.847656 -2.039062 6.921875 -1.800781 6.984375 -1.625 C 7.046875 -1.445312 7.113281 -1.3125 7.1875 -1.21875 C 7.257812 -1.132812 7.332031 -1.070312 7.40625 -1.03125 C 7.476562 -1 7.566406 -0.984375 7.671875 -0.984375 C 7.847656 -0.984375 8.019531 -1.050781 8.1875 -1.1875 C 8.351562 -1.320312 8.59375 -1.632812 8.90625 -2.125 L 9.546875 -1.703125 C 9.085938 -1.015625 8.671875 -0.53125 8.296875 -0.25 C 7.929688 0.0195312 7.492188 0.15625 6.984375 0.15625 C 6.691406 0.15625 6.445312 0.101562 6.25 0 C 6.0625 -0.09375 5.894531 -0.25 5.75 -0.46875 C 5.601562 -0.695312 5.472656 -1.046875 5.359375 -1.515625 C 5.160156 -2.359375 5.035156 -3.003906 4.984375 -3.453125 L 4.890625 -3.453125 C 4.203125 -2.472656 3.6875 -1.769531 3.34375 -1.34375 C 3.007812 -0.914062 2.734375 -0.597656 2.515625 -0.390625 C 2.296875 -0.191406 2.082031 -0.0546875 1.875 0.015625 C 1.664062 0.0976562 1.390625 0.140625 1.046875 0.140625 C 0.742188 0.140625 0.492188 0.101562 0.296875 0.03125 L 0.6875 -1.75 L 1.375 -1.75 C 1.414062 -1.476562 1.53125 -1.34375 1.71875 -1.34375 C 1.8125 -1.34375 1.90625 -1.363281 2 -1.40625 C 2.101562 -1.457031 2.25 -1.578125 2.4375 -1.765625 C 2.632812 -1.953125 2.898438 -2.242188 3.234375 -2.640625 C 3.566406 -3.046875 4.050781 -3.644531 4.6875 -4.4375 Z M 4.6875 -4.4375 "/>
</g>
<g id="glyph-2-3">
<path d="M 3.03125 -2.28125 C 3.125 -1.820312 3.171875 -1.367188 3.171875 -0.921875 C 3.171875 -0.460938 3.09375 -0.046875 2.9375 0.328125 C 2.78125 0.710938 2.53125 1.09375 2.1875 1.46875 C 1.84375 1.84375 1.367188 2.257812 0.765625 2.71875 L 0.234375 2.109375 C 0.566406 1.796875 0.804688 1.515625 0.953125 1.265625 C 1.109375 1.015625 1.21875 0.726562 1.28125 0.40625 C 1.351562 0.0820312 1.390625 -0.320312 1.390625 -0.8125 C 1.390625 -1.300781 1.363281 -1.789062 1.3125 -2.28125 Z M 3.03125 -2.28125 "/>
</g>
<g id="glyph-2-4">
<path d="M 6.828125 -1.859375 C 6.253906 -1.171875 5.703125 -0.660156 5.171875 -0.328125 C 4.648438 -0.00390625 4.101562 0.15625 3.53125 0.15625 C 2.15625 0.15625 1.46875 -0.535156 1.46875 -1.921875 C 1.46875 -2.359375 1.523438 -2.816406 1.640625 -3.296875 L 2.796875 -8.40625 L 1.15625 -8.40625 L 1.296875 -9.078125 C 1.679688 -9.085938 1.972656 -9.117188 2.171875 -9.171875 C 2.367188 -9.222656 2.535156 -9.289062 2.671875 -9.375 C 2.804688 -9.46875 2.929688 -9.597656 3.046875 -9.765625 C 3.160156 -9.941406 3.269531 -10.160156 3.375 -10.421875 C 3.476562 -10.691406 3.632812 -11.160156 3.84375 -11.828125 L 5.203125 -11.828125 L 4.65625 -9.390625 L 7.640625 -9.390625 L 7.421875 -8.40625 L 4.4375 -8.40625 L 3.5625 -4.59375 C 3.394531 -3.851562 3.285156 -3.316406 3.234375 -2.984375 C 3.191406 -2.660156 3.171875 -2.40625 3.171875 -2.21875 C 3.171875 -1.40625 3.507812 -1 4.1875 -1 C 4.476562 -1 4.785156 -1.109375 5.109375 -1.328125 C 5.429688 -1.546875 5.816406 -1.921875 6.265625 -2.453125 Z M 6.828125 -1.859375 "/>
</g>
<g id="glyph-2-5">
<path d="M 4.890625 -4.96875 C 4.890625 -7.1875 4.519531 -9.023438 3.78125 -10.484375 C 3.050781 -11.953125 1.914062 -12.9375 0.375 -13.4375 L 0.640625 -14.203125 C 2.554688 -13.691406 4.023438 -12.597656 5.046875 -10.921875 C 6.066406 -9.253906 6.578125 -7.238281 6.578125 -4.875 C 6.578125 -2.5 6.066406 -0.476562 5.046875 1.1875 C 4.023438 2.851562 2.554688 3.9375 0.640625 4.4375 L 0.40625 3.6875 C 1.914062 3.175781 3.039062 2.175781 3.78125 0.6875 C 4.519531 -0.789062 4.890625 -2.675781 4.890625 -4.96875 Z M 4.890625 -4.96875 "/>
</g>
</g>
<clipPath id="clip-0">
<path clip-rule="nonzero" d="M 0.175781 0 L 282.945312 0 L 282.945312 285.402344 L 0.175781 285.402344 Z M 0.175781 0 "/>
</clipPath>
<clipPath id="clip-1">
<path clip-rule="nonzero" d="M 0.175781 52 L 94 52 L 94 158 L 0.175781 158 Z M 0.175781 52 "/>
</clipPath>
<clipPath id="clip-2">
<path clip-rule="nonzero" d="M 180 53 L 282.945312 53 L 282.945312 160 L 180 160 Z M 180 53 "/>
</clipPath>
<clipPath id="clip-3">
<path clip-rule="nonzero" d="M 0.175781 112 L 94 112 L 94 218 L 0.175781 218 Z M 0.175781 112 "/>
</clipPath>
<clipPath id="clip-4">
<path clip-rule="nonzero" d="M 180 112 L 282.945312 112 L 282.945312 218 L 180 218 Z M 180 112 "/>
</clipPath>
<clipPath id="clip-5">
<path clip-rule="nonzero" d="M 0.175781 9 L 166 9 L 166 141 L 0.175781 141 Z M 0.175781 9 "/>
</clipPath>
<clipPath id="clip-6">
<path clip-rule="nonzero" d="M 59 9 L 282.945312 9 L 282.945312 143 L 59 143 Z M 59 9 "/>
</clipPath>
<clipPath id="clip-7">
<path clip-rule="nonzero" d="M 109 9 L 282.945312 9 L 282.945312 143 L 109 143 Z M 109 9 "/>
</clipPath>
<clipPath id="clip-8">
<path clip-rule="nonzero" d="M 0.175781 9 L 215 9 L 215 141 L 0.175781 141 Z M 0.175781 9 "/>
</clipPath>
<clipPath id="clip-9">
<path clip-rule="nonzero" d="M 86 70 L 282.945312 70 L 282.945312 201 L 86 201 Z M 86 70 "/>
</clipPath>
<clipPath id="clip-10">
<path clip-rule="nonzero" d="M 0.175781 69 L 192 69 L 192 201 L 0.175781 201 Z M 0.175781 69 "/>
</clipPath>
<clipPath id="clip-11">
<path clip-rule="nonzero" d="M 0.175781 69 L 282.945312 69 L 282.945312 201 L 0.175781 201 Z M 0.175781 69 "/>
</clipPath>
<clipPath id="clip-12">
<path clip-rule="nonzero" d="M 0.175781 69 L 144 69 L 144 201 L 0.175781 201 Z M 0.175781 69 "/>
</clipPath>
<clipPath id="clip-13">
<path clip-rule="nonzero" d="M 0.175781 69 L 192 69 L 192 201 L 0.175781 201 Z M 0.175781 69 "/>
</clipPath>
<clipPath id="clip-14">
<path clip-rule="nonzero" d="M 37 70 L 282.945312 70 L 282.945312 201 L 37 201 Z M 37 70 "/>
</clipPath>
<clipPath id="clip-15">
<path clip-rule="nonzero" d="M 86 69 L 282.945312 69 L 282.945312 201 L 86 201 Z M 86 69 "/>
</clipPath>
<clipPath id="clip-16">
<path clip-rule="nonzero" d="M 0.175781 69 L 143 69 L 143 201 L 0.175781 201 Z M 0.175781 69 "/>
</clipPath>
<clipPath id="clip-17">
<path clip-rule="nonzero" d="M 0.175781 129 L 192 129 L 192 265 L 0.175781 265 Z M 0.175781 129 "/>
</clipPath>
<clipPath id="clip-18">
<path clip-rule="nonzero" d="M 86 129 L 282.945312 129 L 282.945312 265 L 86 265 Z M 86 129 "/>
</clipPath>
</defs>
<g clip-path="url(#clip-0)">
<path fill-rule="evenodd" fill="rgb(96.499634%, 77.598572%, 67.799377%)" fill-opacity="1" d="M 0.175781 285.453125 L 282.886719 285.453125 L 282.886719 0 L 0.175781 0 Z M 0.175781 285.453125 "/>
</g>
<path fill-rule="evenodd" fill="rgb(94.898987%, 66.699219%, 51.799011%)" fill-opacity="1" stroke-width="2.5" stroke-linecap="butt" stroke-linejoin="miter" stroke="rgb(0%, 0%, 0%)" stroke-opacity="1" stroke-miterlimit="10" d="M 95.508375 240.658994 C 95.508375 250.248223 103.280039 258.019887 112.861434 258.019887 C 122.438912 258.019887 130.210575 250.248223 130.210575 240.658994 C 130.210575 231.081516 122.438912 223.309853 112.861434 223.309853 C 103.280039 223.309853 95.508375 231.081516 95.508375 240.658994 Z M 95.508375 240.658994 " transform="matrix(0.997213, 0, 0, -0.997213, 0.175819, 285.40223)"/>
<path fill-rule="evenodd" fill="rgb(94.898987%, 66.699219%, 51.799011%)" fill-opacity="1" stroke-width="2.5" stroke-linecap="butt" stroke-linejoin="miter" stroke="rgb(0%, 0%, 0%)" stroke-opacity="1" stroke-miterlimit="10" d="M 144.919544 240.658994 C 144.919544 250.248223 152.691208 258.019887 162.280437 258.019887 C 171.861832 258.019887 179.629578 250.248223 179.629578 240.658994 C 179.629578 231.081516 171.861832 223.309853 162.280437 223.309853 C 152.691208 223.309853 144.919544 231.081516 144.919544 240.658994 Z M 144.919544 240.658994 " transform="matrix(0.997213, 0, 0, -0.997213, 0.175819, 285.40223)"/>
<path fill-rule="evenodd" fill="rgb(94.898987%, 66.699219%, 51.799011%)" fill-opacity="1" stroke-width="2.5" stroke-linecap="butt" stroke-linejoin="miter" stroke="rgb(0%, 0%, 0%)" stroke-opacity="1" stroke-miterlimit="10" d="M 121.819999 56.15642 C 121.819999 65.737815 129.591662 73.509478 139.16914 73.509478 C 148.750536 73.509478 156.518282 65.737815 156.518282 56.15642 C 156.518282 46.571107 148.750536 38.803361 139.16914 38.803361 C 129.591662 38.803361 121.819999 46.571107 121.819999 56.15642 Z M 121.819999 56.15642 " transform="matrix(0.997213, 0, 0, -0.997213, 0.175819, 285.40223)"/>
<path fill-rule="evenodd" fill="rgb(94.898987%, 66.699219%, 51.799011%)" fill-opacity="1" d="M 23.820312 105.207031 C 23.820312 95.644531 31.566406 87.894531 41.125 87.894531 C 50.683594 87.894531 58.429688 95.644531 58.429688 105.207031 C 58.429688 114.757812 50.683594 122.507812 41.125 122.507812 C 31.566406 122.507812 23.820312 114.757812 23.820312 105.207031 Z M 23.820312 105.207031 "/>
<g clip-path="url(#clip-1)">
<path fill="none" stroke-width="2.5" stroke-linecap="butt" stroke-linejoin="miter" stroke="rgb(0%, 0%, 0%)" stroke-opacity="1" stroke-miterlimit="10" d="M 23.710586 180.698889 C 23.710586 190.288119 31.478332 198.059782 41.063644 198.059782 C 50.648957 198.059782 58.416703 190.288119 58.416703 180.698889 C 58.416703 171.121411 50.648957 163.349748 41.063644 163.349748 C 31.478332 163.349748 23.710586 171.121411 23.710586 180.698889 Z M 23.710586 180.698889 " transform="matrix(0.997213, 0, 0, -0.997213, 0.175819, 285.40223)"/>
</g>
<path fill-rule="evenodd" fill="rgb(94.898987%, 66.699219%, 51.799011%)" fill-opacity="1" stroke-width="2.5" stroke-linecap="butt" stroke-linejoin="miter" stroke="rgb(0%, 0%, 0%)" stroke-opacity="1" stroke-miterlimit="10" d="M 72.549848 180.698889 C 72.549848 190.288119 80.317594 198.059782 89.902907 198.059782 C 99.484302 198.059782 107.248131 190.288119 107.248131 180.698889 C 107.248131 171.121411 99.484302 163.349748 89.902907 163.349748 C 80.317594 163.349748 72.549848 171.121411 72.549848 180.698889 Z M 72.549848 180.698889 " transform="matrix(0.997213, 0, 0, -0.997213, 0.175819, 285.40223)"/>
<path fill-rule="evenodd" fill="rgb(94.898987%, 66.699219%, 51.799011%)" fill-opacity="1" stroke-width="2.5" stroke-linecap="butt" stroke-linejoin="miter" stroke="rgb(0%, 0%, 0%)" stroke-opacity="1" stroke-miterlimit="10" d="M 121.961017 180.698889 C 121.961017 190.288119 129.728763 198.059782 139.32191 198.059782 C 148.899388 198.059782 156.671051 190.288119 156.671051 180.698889 C 156.671051 171.121411 148.899388 163.349748 139.32191 163.349748 C 129.728763 163.349748 121.961017 171.121411 121.961017 180.698889 Z M 121.961017 180.698889 " transform="matrix(0.997213, 0, 0, -0.997213, 0.175819, 285.40223)"/>
<path fill-rule="evenodd" fill="rgb(94.898987%, 66.699219%, 51.799011%)" fill-opacity="1" stroke-width="2.5" stroke-linecap="butt" stroke-linejoin="miter" stroke="rgb(0%, 0%, 0%)" stroke-opacity="1" stroke-miterlimit="10" d="M 169.828822 179.370969 C 169.828822 188.960198 177.600485 196.731861 187.18188 196.731861 C 196.77111 196.731861 204.531021 188.960198 204.531021 179.370969 C 204.531021 169.789574 196.77111 162.021828 187.18188 162.021828 C 177.600485 162.021828 169.828822 169.789574 169.828822 179.370969 Z M 169.828822 179.370969 " transform="matrix(0.997213, 0, 0, -0.997213, 0.175819, 285.40223)"/>
<path fill-rule="evenodd" fill="rgb(94.898987%, 66.699219%, 51.799011%)" fill-opacity="1" d="M 215.492188 106.53125 C 215.492188 96.96875 223.242188 89.21875 232.796875 89.21875 C 242.359375 89.21875 250.105469 96.96875 250.105469 106.53125 C 250.105469 116.085938 242.359375 123.832031 232.796875 123.832031 C 223.242188 123.832031 215.492188 116.085938 215.492188 106.53125 Z M 215.492188 106.53125 "/>
<g clip-path="url(#clip-2)">
<path fill="none" stroke-width="2.5" stroke-linecap="butt" stroke-linejoin="miter" stroke="rgb(0%, 0%, 0%)" stroke-opacity="1" stroke-miterlimit="10" d="M 215.918231 179.370969 C 215.918231 188.960198 223.689895 196.731861 233.27129 196.731861 C 242.860519 196.731861 250.628265 188.960198 250.628265 179.370969 C 250.628265 169.789574 242.860519 162.021828 233.27129 162.021828 C 223.689895 162.021828 215.918231 169.789574 215.918231 179.370969 Z M 215.918231 179.370969 " transform="matrix(0.997213, 0, 0, -0.997213, 0.175819, 285.40223)"/>
</g>
<path fill-rule="evenodd" fill="rgb(94.898987%, 66.699219%, 51.799011%)" fill-opacity="1" d="M 23.820312 164.988281 C 23.820312 155.433594 31.566406 147.6875 41.125 147.6875 C 50.683594 147.6875 58.429688 155.433594 58.429688 164.988281 C 58.429688 174.550781 50.683594 182.300781 41.125 182.300781 C 31.566406 182.300781 23.820312 174.550781 23.820312 164.988281 Z M 23.820312 164.988281 "/>
<g clip-path="url(#clip-3)">
<path fill="none" stroke-width="2.5" stroke-linecap="butt" stroke-linejoin="miter" stroke="rgb(0%, 0%, 0%)" stroke-opacity="1" stroke-miterlimit="10" d="M 23.710586 120.750536 C 23.710586 130.331931 31.478332 138.099677 41.063644 138.099677 C 50.648957 138.099677 58.416703 130.331931 58.416703 120.750536 C 58.416703 111.161306 50.648957 103.389643 41.063644 103.389643 C 31.478332 103.389643 23.710586 111.161306 23.710586 120.750536 Z M 23.710586 120.750536 " transform="matrix(0.997213, 0, 0, -0.997213, 0.175819, 285.40223)"/>
</g>
<path fill-rule="evenodd" fill="rgb(94.898987%, 66.699219%, 51.799011%)" fill-opacity="1" stroke-width="2.5" stroke-linecap="butt" stroke-linejoin="miter" stroke="rgb(0%, 0%, 0%)" stroke-opacity="1" stroke-miterlimit="10" d="M 73.129589 120.750536 C 73.129589 130.331931 80.897335 138.099677 90.47873 138.099677 C 100.060126 138.099677 107.831789 130.331931 107.831789 120.750536 C 107.831789 111.161306 100.060126 103.389643 90.47873 103.389643 C 80.897335 103.389643 73.129589 111.161306 73.129589 120.750536 Z M 73.129589 120.750536 " transform="matrix(0.997213, 0, 0, -0.997213, 0.175819, 285.40223)"/>
<path fill-rule="evenodd" fill="rgb(94.898987%, 66.699219%, 51.799011%)" fill-opacity="1" stroke-width="2.5" stroke-linecap="butt" stroke-linejoin="miter" stroke="rgb(0%, 0%, 0%)" stroke-opacity="1" stroke-miterlimit="10" d="M 121.961017 120.750536 C 121.961017 130.331931 129.728763 138.099677 139.32191 138.099677 C 148.899388 138.099677 156.671051 130.331931 156.671051 120.750536 C 156.671051 111.161306 148.899388 103.389643 139.32191 103.389643 C 129.728763 103.389643 121.961017 111.161306 121.961017 120.750536 Z M 121.961017 120.750536 " transform="matrix(0.997213, 0, 0, -0.997213, 0.175819, 285.40223)"/>
<path fill-rule="evenodd" fill="rgb(94.898987%, 66.699219%, 51.799011%)" fill-opacity="1" stroke-width="2.5" stroke-linecap="butt" stroke-linejoin="miter" stroke="rgb(0%, 0%, 0%)" stroke-opacity="1" stroke-miterlimit="10" d="M 169.828822 120.750536 C 169.828822 130.331931 177.600485 138.099677 187.18188 138.099677 C 196.77111 138.099677 204.531021 130.331931 204.531021 120.750536 C 204.531021 111.161306 196.77111 103.389643 187.18188 103.389643 C 177.600485 103.389643 169.828822 111.161306 169.828822 120.750536 Z M 169.828822 120.750536 " transform="matrix(0.997213, 0, 0, -0.997213, 0.175819, 285.40223)"/>
<path fill-rule="evenodd" fill="rgb(94.898987%, 66.699219%, 51.799011%)" fill-opacity="1" d="M 215.492188 164.988281 C 215.492188 155.433594 223.242188 147.6875 232.796875 147.6875 C 242.359375 147.6875 250.105469 155.433594 250.105469 164.988281 C 250.105469 174.550781 242.359375 182.300781 232.796875 182.300781 C 223.242188 182.300781 215.492188 174.550781 215.492188 164.988281 Z M 215.492188 164.988281 "/>
<g clip-path="url(#clip-4)">
<path fill="none" stroke-width="2.5" stroke-linecap="butt" stroke-linejoin="miter" stroke="rgb(0%, 0%, 0%)" stroke-opacity="1" stroke-miterlimit="10" d="M 215.918231 120.750536 C 215.918231 130.331931 223.689895 138.099677 233.27129 138.099677 C 242.860519 138.099677 250.628265 130.331931 250.628265 120.750536 C 250.628265 111.161306 242.860519 103.389643 233.27129 103.389643 C 223.689895 103.389643 215.918231 111.161306 215.918231 120.750536 Z M 215.918231 120.750536 " transform="matrix(0.997213, 0, 0, -0.997213, 0.175819, 285.40223)"/>
</g>
<g clip-path="url(#clip-5)">
<path fill="none" stroke-width="3.75" stroke-linecap="butt" stroke-linejoin="miter" stroke="rgb(0%, 0%, 0%)" stroke-opacity="1" stroke-miterlimit="10" d="M 112.861434 223.309853 L 41.063644 198.059782 " transform="matrix(0.997213, 0, 0, -0.997213, 0.175819, 285.40223)"/>
</g>
<path fill="none" stroke-width="3.75" stroke-linecap="butt" stroke-linejoin="miter" stroke="rgb(0%, 0%, 0%)" stroke-opacity="1" stroke-miterlimit="10" d="M 112.861434 223.309853 L 89.902907 198.059782 " transform="matrix(0.997213, 0, 0, -0.997213, 0.175819, 285.40223)"/>
<path fill="none" stroke-width="3.75" stroke-linecap="butt" stroke-linejoin="miter" stroke="rgb(0%, 0%, 0%)" stroke-opacity="1" stroke-miterlimit="10" d="M 112.861434 223.309853 L 139.32191 198.059782 " transform="matrix(0.997213, 0, 0, -0.997213, 0.175819, 285.40223)"/>
<path fill="none" stroke-width="3.75" stroke-linecap="butt" stroke-linejoin="miter" stroke="rgb(0%, 0%, 0%)" stroke-opacity="1" stroke-miterlimit="10" d="M 112.861434 223.309853 L 187.18188 196.731861 " transform="matrix(0.997213, 0, 0, -0.997213, 0.175819, 285.40223)"/>
<g clip-path="url(#clip-6)">
<path fill="none" stroke-width="3.75" stroke-linecap="butt" stroke-linejoin="miter" stroke="rgb(0%, 0%, 0%)" stroke-opacity="1" stroke-miterlimit="10" d="M 112.861434 223.309853 L 233.27129 196.731861 " transform="matrix(0.997213, 0, 0, -0.997213, 0.175819, 285.40223)"/>
</g>
<g clip-path="url(#clip-7)">
<path fill="none" stroke-width="3.75" stroke-linecap="butt" stroke-linejoin="miter" stroke="rgb(0%, 0%, 0%)" stroke-opacity="1" stroke-miterlimit="10" d="M 162.280437 223.309853 L 233.27129 196.731861 " transform="matrix(0.997213, 0, 0, -0.997213, 0.175819, 285.40223)"/>
</g>
<path fill="none" stroke-width="3.75" stroke-linecap="butt" stroke-linejoin="miter" stroke="rgb(0%, 0%, 0%)" stroke-opacity="1" stroke-miterlimit="10" d="M 162.280437 223.309853 L 89.902907 198.059782 " transform="matrix(0.997213, 0, 0, -0.997213, 0.175819, 285.40223)"/>
<path fill="none" stroke-width="3.75" stroke-linecap="butt" stroke-linejoin="miter" stroke="rgb(0%, 0%, 0%)" stroke-opacity="1" stroke-miterlimit="10" d="M 162.280437 223.309853 L 139.32191 198.059782 " transform="matrix(0.997213, 0, 0, -0.997213, 0.175819, 285.40223)"/>
<path fill="none" stroke-width="3.75" stroke-linecap="butt" stroke-linejoin="miter" stroke="rgb(0%, 0%, 0%)" stroke-opacity="1" stroke-miterlimit="10" d="M 162.280437 223.309853 L 187.18188 196.731861 " transform="matrix(0.997213, 0, 0, -0.997213, 0.175819, 285.40223)"/>
<g clip-path="url(#clip-8)">
<path fill="none" stroke-width="3.75" stroke-linecap="butt" stroke-linejoin="miter" stroke="rgb(0%, 0%, 0%)" stroke-opacity="1" stroke-miterlimit="10" d="M 162.280437 223.309853 L 41.063644 198.059782 " transform="matrix(0.997213, 0, 0, -0.997213, 0.175819, 285.40223)"/>
</g>
<g clip-path="url(#clip-9)">
<path fill="none" stroke-width="3.75" stroke-linecap="butt" stroke-linejoin="miter" stroke="rgb(0%, 0%, 0%)" stroke-opacity="1" stroke-miterlimit="10" d="M 139.32191 138.099677 L 233.27129 162.021828 " transform="matrix(0.997213, 0, 0, -0.997213, 0.175819, 285.40223)"/>
</g>
<path fill="none" stroke-width="3.75" stroke-linecap="butt" stroke-linejoin="miter" stroke="rgb(0%, 0%, 0%)" stroke-opacity="1" stroke-miterlimit="10" d="M 187.18188 138.099677 L 89.898989 163.349748 " transform="matrix(0.997213, 0, 0, -0.997213, 0.175819, 285.40223)"/>
<g clip-path="url(#clip-10)">
<path fill="none" stroke-width="3.75" stroke-linecap="butt" stroke-linejoin="miter" stroke="rgb(0%, 0%, 0%)" stroke-opacity="1" stroke-miterlimit="10" d="M 41.063644 138.099677 L 139.32191 163.349748 " transform="matrix(0.997213, 0, 0, -0.997213, 0.175819, 285.40223)"/>
</g>
<path fill="none" stroke-width="3.75" stroke-linecap="butt" stroke-linejoin="miter" stroke="rgb(0%, 0%, 0%)" stroke-opacity="1" stroke-miterlimit="10" d="M 139.32191 138.099677 L 139.32191 163.349748 " transform="matrix(0.997213, 0, 0, -0.997213, 0.175819, 285.40223)"/>
<path fill="none" stroke-width="3.75" stroke-linecap="butt" stroke-linejoin="miter" stroke="rgb(0%, 0%, 0%)" stroke-opacity="1" stroke-miterlimit="10" d="M 187.18188 138.099677 L 187.18188 162.021828 " transform="matrix(0.997213, 0, 0, -0.997213, 0.175819, 285.40223)"/>
<path fill="none" stroke-width="3.75" stroke-linecap="butt" stroke-linejoin="miter" stroke="rgb(0%, 0%, 0%)" stroke-opacity="1" stroke-miterlimit="10" d="M 90.47873 138.099677 L 187.18188 162.021828 " transform="matrix(0.997213, 0, 0, -0.997213, 0.175819, 285.40223)"/>
<g clip-path="url(#clip-11)">
<path fill="none" stroke-width="3.75" stroke-linecap="butt" stroke-linejoin="miter" stroke="rgb(0%, 0%, 0%)" stroke-opacity="1" stroke-miterlimit="10" d="M 233.27129 138.099677 L 41.063644 163.349748 " transform="matrix(0.997213, 0, 0, -0.997213, 0.175819, 285.40223)"/>
</g>
<g clip-path="url(#clip-12)">
<path fill="none" stroke-width="3.75" stroke-linecap="butt" stroke-linejoin="miter" stroke="rgb(0%, 0%, 0%)" stroke-opacity="1" stroke-miterlimit="10" d="M 90.47873 138.099677 L 41.063644 163.349748 " transform="matrix(0.997213, 0, 0, -0.997213, 0.175819, 285.40223)"/>
</g>
<g clip-path="url(#clip-13)">
<path fill="none" stroke-width="3.75" stroke-linecap="butt" stroke-linejoin="miter" stroke="rgb(0%, 0%, 0%)" stroke-opacity="1" stroke-miterlimit="10" d="M 139.32191 138.099677 L 41.063644 163.349748 " transform="matrix(0.997213, 0, 0, -0.997213, 0.175819, 285.40223)"/>
</g>
<g clip-path="url(#clip-14)">
<path fill="none" stroke-width="3.75" stroke-linecap="butt" stroke-linejoin="miter" stroke="rgb(0%, 0%, 0%)" stroke-opacity="1" stroke-miterlimit="10" d="M 90.47873 138.099677 L 233.27129 162.021828 " transform="matrix(0.997213, 0, 0, -0.997213, 0.175819, 285.40223)"/>
</g>
<g clip-path="url(#clip-15)">
<path fill="none" stroke-width="3.75" stroke-linecap="butt" stroke-linejoin="miter" stroke="rgb(0%, 0%, 0%)" stroke-opacity="1" stroke-miterlimit="10" d="M 233.27129 138.099677 L 139.32191 163.349748 " transform="matrix(0.997213, 0, 0, -0.997213, 0.175819, 285.40223)"/>
</g>
<g clip-path="url(#clip-16)">
<path fill="none" stroke-width="3.75" stroke-linecap="butt" stroke-linejoin="miter" stroke="rgb(0%, 0%, 0%)" stroke-opacity="1" stroke-miterlimit="10" d="M 41.063644 138.099677 L 89.902907 163.349748 " transform="matrix(0.997213, 0, 0, -0.997213, 0.175819, 285.40223)"/>
</g>
<g clip-path="url(#clip-17)">
<path fill="none" stroke-width="3.75" stroke-linecap="butt" stroke-linejoin="miter" stroke="rgb(0%, 0%, 0%)" stroke-opacity="1" stroke-miterlimit="10" d="M 41.063644 103.389643 L 139.16914 73.509478 " transform="matrix(0.997213, 0, 0, -0.997213, 0.175819, 285.40223)"/>
</g>
<path fill="none" stroke-width="3.75" stroke-linecap="butt" stroke-linejoin="miter" stroke="rgb(0%, 0%, 0%)" stroke-opacity="1" stroke-miterlimit="10" d="M 90.47873 103.389643 L 139.16914 73.509478 " transform="matrix(0.997213, 0, 0, -0.997213, 0.175819, 285.40223)"/>
<path fill="none" stroke-width="3.75" stroke-linecap="butt" stroke-linejoin="miter" stroke="rgb(0%, 0%, 0%)" stroke-opacity="1" stroke-miterlimit="10" d="M 139.32191 103.389643 L 139.16914 73.509478 " transform="matrix(0.997213, 0, 0, -0.997213, 0.175819, 285.40223)"/>
<path fill="none" stroke-width="3.75" stroke-linecap="butt" stroke-linejoin="miter" stroke="rgb(0%, 0%, 0%)" stroke-opacity="1" stroke-miterlimit="10" d="M 187.18188 103.389643 L 139.16914 73.509478 " transform="matrix(0.997213, 0, 0, -0.997213, 0.175819, 285.40223)"/>
<g clip-path="url(#clip-18)">
<path fill="none" stroke-width="3.75" stroke-linecap="butt" stroke-linejoin="miter" stroke="rgb(0%, 0%, 0%)" stroke-opacity="1" stroke-miterlimit="10" d="M 233.27129 103.389643 L 139.16914 73.509478 " transform="matrix(0.997213, 0, 0, -0.997213, 0.175819, 285.40223)"/>
</g>
<path fill="none" stroke-width="3.75" stroke-linecap="butt" stroke-linejoin="miter" stroke="rgb(0%, 0%, 0%)" stroke-opacity="1" stroke-miterlimit="10" d="M 41.063644 138.099677 L 41.063644 163.349748 " transform="matrix(0.997213, 0, 0, -0.997213, 0.175819, 285.40223)"/>
<g fill="rgb(0%, 0%, 0%)" fill-opacity="1">
<use xlink:href="#glyph-0-0" x="104.215003" y="18.288878"/>
</g>
<g fill="rgb(0%, 0%, 0%)" fill-opacity="1">
<use xlink:href="#glyph-1-0" x="114.625902" y="22.357505"/>
</g>
<g fill="rgb(0%, 0%, 0%)" fill-opacity="1">
<use xlink:href="#glyph-0-1" x="158.084425" y="19.84453"/>
</g>
<g fill="rgb(0%, 0%, 0%)" fill-opacity="1">
<use xlink:href="#glyph-2-0" x="106.219401" y="265.130893"/>
</g>
<g fill="rgb(0%, 0%, 0%)" fill-opacity="1">
<use xlink:href="#glyph-2-1" x="118.185951" y="265.130893"/>
</g>
<g fill="rgb(0%, 0%, 0%)" fill-opacity="1">
<use xlink:href="#glyph-2-2" x="126.562537" y="265.130893"/>
</g>
<g fill="rgb(0%, 0%, 0%)" fill-opacity="1">
<use xlink:href="#glyph-1-0" x="136.973436" y="269.223454"/>
</g>
<g fill="rgb(0%, 0%, 0%)" fill-opacity="1">
<use xlink:href="#glyph-2-3" x="143.435373" y="265.130893"/>
</g>
<g fill="rgb(0%, 0%, 0%)" fill-opacity="1">
<use xlink:href="#glyph-2-4" x="151.004216" y="265.130893"/>
</g>
<g fill="rgb(0%, 0%, 0%)" fill-opacity="1">
<use xlink:href="#glyph-2-5" x="159.380801" y="265.130893"/>
</g>
</svg>
